<svg xmlns="http://www.w3.org/2000/svg" xmlns:xlink="http://www.w3.org/1999/xlink" xmlns:lucid="lucid" width="421" height="361.5"><g transform="translate(300.5 -216.5)" lucid:page-tab-id="0_0"><path d="M-500 0H500v1000H-500z" fill="#fff"/><path d="M-220 270c0 16.57-13.43 30-30 30s-30-13.43-30-30 13.43-30 30-30 30 13.43 30 30z" stroke="#3a414a" fill="#fff"/><use xlink:href="#a" transform="matrix(1,0,0,1,-275,245) translate(15.299382716049383 30.27777777777778)"/><path d="M-220 470c0 16.57-13.43 30-30 30s-30-13.43-30-30 13.43-30 30-30 30 13.43 30 30z" stroke="#3a414a" fill="#fff"/><use xlink:href="#b" transform="matrix(1,0,0,1,-275,445) translate(15.885802469135804 30.27777777777778)"/><path d="M100 270c0 16.57-13.43 30-30 30s-30-13.43-30-30 13.43-30 30-30 30 13.43 30 30z" stroke="#3a414a" fill="#fff"/><use xlink:href="#c" transform="matrix(1,0,0,1,45,245) translate(12.685185185185187 30.27777777777778)"/><path d="M100 470c0 16.57-13.43 30-30 30s-30-13.43-30-30 13.43-30 30-30 30 13.43 30 30z" stroke="#3a414a" fill="#fff"/><use xlink:href="#d" transform="matrix(1,0,0,1,45,445) translate(13.271604938271606 30.27777777777778)"/><path d="M-40 350c0 16.57-13.43 30-30 30s-30-13.43-30-30 13.43-30 30-30 30 13.43 30 30z" stroke="#3a414a" fill="#fff"/><use xlink:href="#e" transform="matrix(1,0,0,1,-95,325) translate(13.919753086419753 30.27777777777778)"/><path d="M-40 470c0 16.57-13.43 30-30 30s-30-13.43-30-30 13.43-30 30-30 30 13.43 30 30z" stroke="#3a414a" fill="#fff"/><use xlink:href="#f" transform="matrix(1,0,0,1,-95,445) translate(13.919753086419753 30.27777777777778)"/><path d="M-226.23 450.23l116.76-74.92" stroke="#3a414a" fill="none"/><path d="M-225.95 450.64l-.4.26-.6-.8.46-.3z" stroke="#3a414a" stroke-width=".05" fill="#3a414a"/><path d="M-97.05 367.33l-9.5 11.6-5-7.8z" stroke="#3a414a" fill="#3a414a"/><path d="M-219 470h102.12" stroke="#3a414a" fill="none"/><path d="M-219 470.5h-.54l.04-.5-.02-.5h.53z" stroke="#3a414a" stroke-width=".05" fill="#3a414a"/><path d="M-102.12 470l-14.26 4.63v-9.26z" stroke="#3a414a" fill="#3a414a"/><path d="M-39 470h62.12" stroke="#3a414a" fill="none"/><path d="M-39 470.5h-.54l.04-.5-.02-.5h.53z" stroke="#3a414a" stroke-width=".05" fill="#3a414a"/><path d="M37.88 470l-14.26 4.63v-9.26z" stroke="#3a414a" fill="#3a414a"/><path d="M-219 270H23.12" stroke="#3a414a" fill="none"/><path d="M-219 270.5h-.54l.04-.5-.02-.5h.53z" stroke="#3a414a" stroke-width=".05" fill="#3a414a"/><path d="M37.88 270l-14.26 4.63v-9.26z" stroke="#3a414a" fill="#3a414a"/><path d="M-42.14 336.57l71.67-43.08" stroke="#3a414a" fill="none"/><path d="M-41.87 337l-.47.27-.46-.88.4-.26z" stroke="#3a414a" stroke-width=".05" fill="#3a414a"/><path d="M42.18 285.88l-9.84 11.32-4.77-7.94z" stroke="#3a414a" fill="#3a414a"/><path d="M-70 439v-42.12" stroke="#3a414a" stroke-linejoin="round" fill="none"/><path d="M-69.5 439.54l-.5-.04-.5.02V439h1z" stroke="#3a414a" stroke-width=".05" fill="#3a414a"/><path d="M-70 382.12l4.64 14.26h-9.28z" stroke="#3a414a" fill="#3a414a"/><path d="M-230.7 494.02l44 13.8 27.62 7.38 20.3 4.52 16.3 2.9 13.82 1.9 12.2 1.13 11.13.56 10.4.1 10-.33 9.77-.73 9.8-1.15 10.02-1.63 10.55-2.15 11.44-2.83L-.5 513.7l15.3-5.2 19.83-7.67 1.32-.56" stroke="#3a414a" stroke-linejoin="round" fill="none"/><path d="M-230.53 493.54l-.3.96-.82-.26.97-.75z" stroke="#3a414a" stroke-width=".05" fill="#3a414a"/><path d="M49.54 494.5l-11.3 9.85-3.64-8.53z" stroke="#3a414a" fill="#3a414a"/><path d="M-116.25 243a6 6 0 0 1 6-6h40.5a6 6 0 0 1 6 6v33.5a6 6 0 0 1-6 6h-40.5a6 6 0 0 1-6-6z" stroke="#000" stroke-opacity="0" fill="#fff" fill-opacity="0"/><use xlink:href="#g" transform="matrix(1,0,0,1,-111.25,242) translate(15.327160493827162 22.27777777777778)"/><path d="M-194 379a6 6 0 0 1 6-6h40.5a6 6 0 0 1 6 6v33.5a6 6 0 0 1-6 6H-188a6 6 0 0 1-6-6z" stroke="#000" stroke-opacity="0" fill="#fff" fill-opacity="0"/><use xlink:href="#h" transform="matrix(1,0,0,1,-189,378) translate(11.654320987654321 22.27777777777778)"/><path d="M-24 312a6 6 0 0 1 6-6h40.5a6 6 0 0 1 6 6v33.5a6 6 0 0 1-6 6H-18a6 6 0 0 1-6-6z" stroke="#000" stroke-opacity="0" fill="#fff" fill-opacity="0"/><use xlink:href="#g" transform="matrix(1,0,0,1,-19,311) translate(15.327160493827162 22.27777777777778)"/><path d="M-78 403a6 6 0 0 1 6-6h40.5a6 6 0 0 1 6 6v33.5a6 6 0 0 1-6 6H-72a6 6 0 0 1-6-6z" stroke="#000" stroke-opacity="0" fill="#fff" fill-opacity="0"/><use xlink:href="#g" transform="matrix(1,0,0,1,-73,402) translate(15.327160493827162 22.27777777777778)"/><path d="M-195 444a6 6 0 0 1 6-6h40.5a6 6 0 0 1 6 6v33.5a6 6 0 0 1-6 6H-189a6 6 0 0 1-6-6z" stroke="#000" stroke-opacity="0" fill="#fff" fill-opacity="0"/><use xlink:href="#g" transform="matrix(1,0,0,1,-190,443) translate(15.327160493827162 22.27777777777778)"/><path d="M-40 445a6 6 0 0 1 6-6H6.5a6 6 0 0 1 6 6v33.5a6 6 0 0 1-6 6H-34a6 6 0 0 1-6-6z" stroke="#000" stroke-opacity="0" fill="#fff" fill-opacity="0"/><use xlink:href="#i" transform="matrix(1,0,0,1,-35,444) translate(15.327160493827162 22.27777777777778)"/><path d="M-25.5 518a6 6 0 0 1 6-6H21a6 6 0 0 1 6 6v33.5a6 6 0 0 1-6 6h-40.5a6 6 0 0 1-6-6z" stroke="#000" stroke-opacity="0" fill="#fff" fill-opacity="0"/><use xlink:href="#i" transform="matrix(1,0,0,1,-20.5,517) translate(15.327160493827162 22.27777777777778)"/><defs><path fill="#3a414a" d="M197 0v-115H63V0H30v-248h33v105h134v-105h34V0h-34" id="j"/><path fill="#3a414a" d="M24-231v-30h32v30H24zM24 0v-190h32V0H24" id="k"/><g id="a"><use transform="matrix(0.06172839506172839,0,0,0.06172839506172839,0,0)" xlink:href="#j"/><use transform="matrix(0.043209876543209874,0,0,0.043209876543209874,15.987654320987653,3.1111111111111107)" xlink:href="#k"/></g><path fill="#3a414a" d="M194 0L95-120 63-95V0H30v-248h33v124l119-124h40L117-140 236 0h-42" id="l"/><g id="b"><use transform="matrix(0.06172839506172839,0,0,0.06172839506172839,0,0)" xlink:href="#l"/><use transform="matrix(0.043209876543209874,0,0,0.043209876543209874,14.814814814814813,3.1111111111111107)" xlink:href="#k"/></g><path fill="#3a414a" d="M100-194c62-1 85 37 85 99 1 63-27 99-86 99S16-35 15-95c0-66 28-99 85-99zM99-20c44 1 53-31 53-75 0-43-8-75-51-75s-53 32-53 75 10 74 51 75" id="m"/><g id="c"><use transform="matrix(0.06172839506172839,0,0,0.06172839506172839,0,0)" xlink:href="#j"/><use transform="matrix(0.043209876543209874,0,0,0.043209876543209874,15.987654320987653,3.1111111111111107)" xlink:href="#m"/></g><g id="d"><use transform="matrix(0.06172839506172839,0,0,0.06172839506172839,0,0)" xlink:href="#l"/><use transform="matrix(0.043209876543209874,0,0,0.043209876543209874,14.814814814814813,3.1111111111111107)" xlink:href="#m"/></g><path fill="#3a414a" d="M209 0H11v-25l151-195H24v-28h176v25L50-27h159V0" id="n"/><path fill="#3a414a" d="M27 0v-27h64v-190l-56 39v-29l58-41h29v221h61V0H27" id="o"/><g id="e"><use transform="matrix(0.06172839506172839,0,0,0.06172839506172839,0,0)" xlink:href="#n"/><use transform="matrix(0.043209876543209874,0,0,0.043209876543209874,13.518518518518517,3.1111111111111107)" xlink:href="#o"/></g><path fill="#3a414a" d="M101-251c82-7 93 87 43 132L82-64C71-53 59-42 53-27h129V0H18c2-99 128-94 128-182 0-28-16-43-45-43s-46 15-49 41l-32-3c6-41 34-60 81-64" id="p"/><g id="f"><use transform="matrix(0.06172839506172839,0,0,0.06172839506172839,0,0)" xlink:href="#n"/><use transform="matrix(0.043209876543209874,0,0,0.043209876543209874,13.518518518518517,3.1111111111111107)" xlink:href="#p"/></g><use transform="matrix(0.06172839506172839,0,0,0.06172839506172839,0,0)" xlink:href="#p" id="g"/><path fill="#3a414a" d="M16-82v-28h88v28H16" id="q"/><g id="h"><use transform="matrix(0.06172839506172839,0,0,0.06172839506172839,0,0)" xlink:href="#q"/><use transform="matrix(0.06172839506172839,0,0,0.06172839506172839,7.345679012345679,0)" xlink:href="#o"/></g><use transform="matrix(0.06172839506172839,0,0,0.06172839506172839,0,0)" xlink:href="#o" id="i"/></defs></g></svg>