<svg xmlns="http://www.w3.org/2000/svg" xmlns:xlink="http://www.w3.org/1999/xlink" xmlns:lucid="lucid" width="1267.51" height="716.91"><g transform="translate(1160.5 -500)" lucid:page-tab-id="0_0"><path d="M-1500 500H500v1000h-2000z" fill="#fff"/><path d="M-881.96 521.94a4.3 4.3 0 0 1 5.68 4.06v99.7a4.3 4.3 0 0 1-5.68 4.06l-152.36-51.97a2.05 2.05 0 0 1 0-3.9zM-662.87 622.2a4.1 4.1 0 0 1 5.6 3.8v99.7a4.1 4.1 0 0 1-5.6 3.8l-131.54-51.47a2.35 2.35 0 0 1 0-4.37z" stroke="#3a414a" fill="#fff"/><path d="M-875.28 575.86l19.77.38 14.57.9 11.55 1.2 9.62 1.43 8.23 1.57 7.2 1.68 6.4 1.78 5.74 1.87 5.23 1.94 4.78 2.02 4.42 2.07 4.1 2.13 3.82 2.2 3.6 2.3 3.4 2.35 3.2 2.43 3.05 2.54 2.9 2.62 2.8 2.73 2.67 2.84 2.57 2.98 2.44 3.08" stroke="#3a414a" stroke-linejoin="round" fill="none"/><path d="M-875.26 575.36l-.02 1h-.5v-1z" stroke="#3a414a" stroke-width=".05" fill="#3a414a"/><path d="M-721.12 633.8c0 8.3-6.7 15-15 15-8.28 0-15-6.7-15-15 0-8.28 6.72-15 15-15 8.3 0 15 6.72 15 15z" stroke="#3a414a" fill="#3a414a"/><path d="M-778.83 591.64l.57-1.1.82-1.42.83-1.28.85-1.16.87-1.06.9-.98.9-.9.95-.83.97-.75 1-.7 1.03-.66 1.08-.6 1.12-.56 1.18-.5 1.23-.44 1.3-.4 1.4-.33 1.46-.28 1.58-.22 1.7-.13 1.8-.04 2 .07 2.14.18 2.35.32 2.57.5 2.82.7 3.08.95 3.38 1.24 3.67 1.58 3.98 1.96 4.24 2.38 4.43 2.82 4.52 3.23 4.5 3.6 4.33 3.85 4.05 4 .72.8" stroke="#3a414a" stroke-linejoin="round" fill="none"/><path d="M-778.82 591.63l-.24.46" stroke="#3a414a" fill="none"/><path d="M-679.45 617.73c0 8.28-6.7 15-15 15-8.28 0-15-6.72-15-15 0-8.3 6.72-15 15-15 8.3 0 15 6.7 15 15z" stroke="#3a414a" fill="#3a414a"/><path d="M-960 551.85a6 6 0 0 1 6-6h71.57a6 6 0 0 1 6 6v48a6 6 0 0 1-6 6H-954a6 6 0 0 1-6-6z" stroke="#000" stroke-opacity="0" fill="#fff" fill-opacity="0"/><use xlink:href="#a" transform="matrix(1,0,0,1,-955,550.8478500448537) translate(30.82716049382716 30.27777777777778)"/><path d="M-740.85 651.85a6 6 0 0 1 6-6h71.57a6 6 0 0 1 6 6v48a6 6 0 0 1-6 6h-71.57a6 6 0 0 1-6-6z" stroke="#000" stroke-opacity="0" fill="#fff" fill-opacity="0"/><use xlink:href="#b" transform="matrix(1,0,0,1,-735.8540041563803,650.8478500448537) translate(30.82716049382716 30.27777777777778)"/><path d="M-1140 551.85a6 6 0 0 1 6-6h71.57a6 6 0 0 1 6 6v48a6 6 0 0 1-6 6H-1134a6 6 0 0 1-6-6z" stroke="#000" stroke-opacity="0" fill="#fff" fill-opacity="0"/><use xlink:href="#c" transform="matrix(1,0,0,1,-1135,550.8478500448537) translate(27.154320987654323 30.27777777777778)"/><path d="M-221.96 521.94a4.3 4.3 0 0 1 5.68 4.06v99.7a4.3 4.3 0 0 1-5.68 4.06l-152.36-51.97a2.05 2.05 0 0 1 0-3.9zM-2.87 622.2a4.1 4.1 0 0 1 5.6 3.8v99.7a4.1 4.1 0 0 1-5.6 3.8l-131.54-51.47a2.35 2.35 0 0 1 0-4.37z" stroke="#3a414a" fill="#fff"/><path d="M-215.28 575.86l19.77.38 14.57.9 11.56 1.2 9.6 1.43 8.24 1.57 7.2 1.68 6.4 1.78 5.74 1.87 5.23 1.94 4.78 2.02 4.42 2.07 4.1 2.13 3.83 2.2 3.6 2.3 3.38 2.35 3.2 2.43 3.06 2.54 2.9 2.62 2.8 2.73 2.67 2.84 2.57 2.98 2.44 3.08" stroke="#3a414a" stroke-linejoin="round" fill="none"/><path d="M-215.26 575.36l-.02 1h-.5v-1z" stroke="#3a414a" stroke-width=".05" fill="#3a414a"/><path d="M-61.12 633.8c0 8.3-6.7 15-15 15-8.28 0-15-6.7-15-15 0-8.28 6.72-15 15-15 8.3 0 15 6.72 15 15z" stroke="#3a414a" fill="#3a414a"/><path d="M-118.83 591.64l.57-1.1.82-1.42.83-1.28.85-1.16.87-1.06.9-.98.9-.9.95-.83.97-.75 1-.7 1.03-.66 1.08-.6 1.12-.56 1.18-.5 1.23-.44 1.3-.4 1.4-.33 1.46-.28 1.58-.22 1.7-.13 1.8-.04 2 .07 2.14.18 2.35.32 2.58.5 2.8.7 3.1.95 3.38 1.24 3.67 1.58 3.97 1.96 4.24 2.38 4.43 2.82 4.53 3.23 4.5 3.6 4.33 3.85 4.05 4 .7.8h.02" stroke="#3a414a" stroke-linejoin="round" fill="none"/><path d="M-118.82 591.63l-.24.46" stroke="#3a414a" fill="none"/><path d="M-19.45 617.73c0 8.28-6.7 15-15 15-8.28 0-15-6.72-15-15 0-8.3 6.72-15 15-15 8.3 0 15 6.7 15 15z" stroke="#3a414a" fill="#3a414a"/><path d="M-300 551.85a6 6 0 0 1 6-6h71.57a6 6 0 0 1 6 6v48a6 6 0 0 1-6 6H-294a6 6 0 0 1-6-6z" stroke="#000" stroke-opacity="0" fill="#fff" fill-opacity="0"/><use xlink:href="#a" transform="matrix(1,0,0,1,-295,550.8478500448537) translate(30.82716049382716 30.27777777777778)"/><path d="M-80.85 651.85a6 6 0 0 1 6-6h71.57a6 6 0 0 1 6 6v48a6 6 0 0 1-6 6h-71.57a6 6 0 0 1-6-6z" stroke="#000" stroke-opacity="0" fill="#fff" fill-opacity="0"/><use xlink:href="#d" transform="matrix(1,0,0,1,-75.85400415638026,650.8478500448537) translate(30.82716049382716 30.27777777777778)"/><path d="M-480 551.85a6 6 0 0 1 6-6h71.57a6 6 0 0 1 6 6v48a6 6 0 0 1-6 6H-474a6 6 0 0 1-6-6z" stroke="#000" stroke-opacity="0" fill="#fff" fill-opacity="0"/><use xlink:href="#e" transform="matrix(1,0,0,1,-475,550.8478500448537) translate(27.154320987654323 30.27777777777778)"/><path d="M-656.78 675.85h96.28" stroke="#3a414a" stroke-linejoin="round" fill="none"/><path d="M-656.77 676.35h-.5v-1h.5z" stroke="#3a414a" stroke-width=".05" fill="#3a414a"/><path d="M-560.5 675.85h.5" stroke="#3a414a" fill="none"/><path d="M-222 733.53a4.37 4.37 0 0 1 5.72 4.17v93.2a4.37 4.37 0 0 1-5.72 4.18l-152.3-48.94a1.93 1.93 0 0 1 0-3.67z" stroke="#3a414a" fill="#fff"/><path d="M-215.28 784.3l52.3-.57 16.76-1.04 12.07-1.27 9.6-1.4 8.02-1.53 6.9-1.62 6.06-1.7 5.4-1.74 4.9-1.82 4.46-1.87 4.1-1.93 3.8-2 3.57-2.05 3.34-2.12 3.16-2.2 3-2.26 2.84-2.36 2.72-2.45 2.6-2.56 2.5-2.67 2.43-2.8 1.5-1.9" stroke="#3a414a" stroke-linejoin="round" fill="none"/><path d="M-215.26 784.8h-.52v-1h.5z" stroke="#3a414a" stroke-width=".05" fill="#3a414a"/><path d="M-31.07 729.63c0 8.28-6.72 15-15 15-8.3 0-15-6.72-15-15 0-8.28 6.7-15 15-15 8.28 0 15 6.72 15 15z" stroke="#3a414a" fill="#3a414a"/><path d="M-101.75 774.08l-1.92-6.6-1.46-6.77-.9-6.26-.44-5.73-.04-5.16.28-4.65.54-4.18.76-3.77.93-3.4 1.1-3.08.97-2.3" stroke="#3a414a" stroke-linejoin="round" fill="none"/><path d="M-101.76 774.07l.14.5" stroke="#3a414a" fill="none"/><path d="M-76.75 712.42c0 8.3-6.72 15-15 15-8.3 0-15-6.7-15-15 0-8.28 6.7-15 15-15 8.28 0 15 6.72 15 15z" stroke="#3a414a" fill="#3a414a"/><path d="M-299.86 766a6 6 0 0 1 6-6h71.58a6 6 0 0 1 6 6v44.52a6 6 0 0 1-6 6h-71.58a6 6 0 0 1-6-6z" stroke="#000" stroke-opacity="0" fill="#fff" fill-opacity="0"/><use xlink:href="#b" transform="matrix(1,0,0,1,-294.85509670650976,765) translate(30.82716049382716 26.59027777777778)"/><path d="M-881.96 881.94a4.3 4.3 0 0 1 5.68 4.06v99.7a4.3 4.3 0 0 1-5.68 4.06l-152.36-51.97a2.05 2.05 0 0 1 0-3.9zM-662.87 982.2a4.1 4.1 0 0 1 5.6 3.8v99.7a4.1 4.1 0 0 1-5.6 3.8l-131.54-51.47a2.35 2.35 0 0 1 0-4.37z" stroke="#3a414a" fill="#fff"/><path d="M-875.28 935.86l19.77.38 14.57.9 11.55 1.2 9.62 1.43 8.23 1.57 7.2 1.68 6.4 1.78 5.74 1.87 5.23 1.94 4.78 2.02 4.42 2.07 4.1 2.13 3.82 2.2 3.6 2.3 3.4 2.35 3.2 2.43 3.05 2.54 2.9 2.62 2.8 2.73 2.67 2.84 2.57 2.98 2.44 3.08" stroke="#3a414a" stroke-linejoin="round" fill="none"/><path d="M-875.26 935.36l-.02 1h-.5v-1z" stroke="#3a414a" stroke-width=".05" fill="#3a414a"/><path d="M-721.12 993.8c0 8.3-6.7 15-15 15-8.28 0-15-6.7-15-15 0-8.28 6.72-15 15-15 8.3 0 15 6.72 15 15z" stroke="#3a414a" fill="#3a414a"/><path d="M-960 911.85a6 6 0 0 1 6-6h71.57a6 6 0 0 1 6 6v48a6 6 0 0 1-6 6H-954a6 6 0 0 1-6-6z" stroke="#000" stroke-opacity="0" fill="#fff" fill-opacity="0"/><use xlink:href="#a" transform="matrix(1,0,0,1,-955,910.8478500448537) translate(30.82716049382716 30.27777777777778)"/><path d="M-740.85 1011.85a6 6 0 0 1 6-6h71.57a6 6 0 0 1 6 6v48a6 6 0 0 1-6 6h-71.57a6 6 0 0 1-6-6z" stroke="#000" stroke-opacity="0" fill="#fff" fill-opacity="0"/><use xlink:href="#d" transform="matrix(1,0,0,1,-735.8540041563803,1010.8478500448537) translate(30.82716049382716 30.27777777777778)"/><path d="M-1140 911.85a6 6 0 0 1 6-6h71.57a6 6 0 0 1 6 6v48a6 6 0 0 1-6 6H-1134a6 6 0 0 1-6-6z" stroke="#000" stroke-opacity="0" fill="#fff" fill-opacity="0"/><use xlink:href="#f" transform="matrix(1,0,0,1,-1135,910.8478500448537) translate(27.771604938271604 30.27777777777778)"/><path d="M-882 1093.53a4.37 4.37 0 0 1 5.72 4.17v93.2a4.37 4.37 0 0 1-5.72 4.18l-152.3-48.94a1.93 1.93 0 0 1 0-3.67z" stroke="#3a414a" fill="#fff"/><path d="M-875.28 1144.3l23.65-.47 17.82-1.1 14.1-1.48 11.5-1.7 9.64-1.82 8.17-1.9 7.03-1.97 6.1-1.98 5.34-1.98 4.72-2 4.2-1.96 3.75-1.96 3.38-1.96 3.07-1.94 2.78-1.93 2.54-1.93 2.33-1.93 2.14-1.93 1.96-1.94 1.83-1.94 1.68-1.96 1.56-1.98 1.45-2 1.34-2.02 1.25-2.07 1.15-2.1.57-1.15" stroke="#3a414a" stroke-linejoin="round" fill="none"/><path d="M-875.26 1144.8h-.52v-1h.5z" stroke="#3a414a" stroke-width=".05" fill="#3a414a"/><path d="M-712.07 1081c0 8.27-6.72 15-15 15-8.28 0-15-6.73-15-15 0-8.3 6.72-15 15-15 8.28 0 15 6.7 15 15z" stroke="#3a414a" fill="#3a414a"/><path d="M-959.86 1126a6 6 0 0 1 6-6h71.58a6 6 0 0 1 6 6v44.52a6 6 0 0 1-6 6h-71.58a6 6 0 0 1-6-6z" stroke="#000" stroke-opacity="0" fill="#fff" fill-opacity="0"/><use xlink:href="#b" transform="matrix(1,0,0,1,-954.8550967065098,1125) translate(30.82716049382716 26.59027777777778)"/><path d="M3.72 680h100.8" stroke="#3a414a" stroke-linejoin="round" fill="none"/><path d="M3.73 680.5h-.5v-1h.5z" stroke="#3a414a" stroke-width=".05" fill="#3a414a"/><path d="M104.5 680h.5" stroke="#3a414a" fill="none"/><path d="M-656.28 1040h100.3" stroke="#3a414a" stroke-linejoin="round" fill="none"/><path d="M-656.27 1040.5h-.5v-1h.5z" stroke="#3a414a" stroke-width=".05" fill="#3a414a"/><path d="M-556 1040h.5" stroke="#3a414a" fill="none"/><path d="M-221.96 881.94a4.3 4.3 0 0 1 5.68 4.06v99.7a4.3 4.3 0 0 1-5.68 4.06l-152.36-51.97a2.05 2.05 0 0 1 0-3.9zM-2.87 982.2a4.1 4.1 0 0 1 5.6 3.8v99.7a4.1 4.1 0 0 1-5.6 3.8l-131.54-51.47a2.35 2.35 0 0 1 0-4.37z" stroke="#3a414a" fill="#fff"/><path d="M-215.28 935.86l19.77.38 14.57.9 11.56 1.2 9.6 1.43 8.24 1.57 7.2 1.68 6.4 1.78 5.74 1.87 5.23 1.94 4.78 2.02 4.42 2.07 4.1 2.13 3.83 2.2 3.6 2.3 3.38 2.35 3.2 2.43 3.06 2.54 2.9 2.62 2.8 2.73 2.67 2.84 2.57 2.98 2.44 3.08" stroke="#3a414a" stroke-linejoin="round" fill="none"/><path d="M-215.26 935.36l-.02 1h-.5v-1z" stroke="#3a414a" stroke-width=".05" fill="#3a414a"/><path d="M-61.12 993.8c0 8.3-6.7 15-15 15-8.28 0-15-6.7-15-15 0-8.28 6.72-15 15-15 8.3 0 15 6.72 15 15z" stroke="#3a414a" fill="#3a414a"/><path d="M-118.83 951.64l.57-1.1.82-1.42.83-1.28.85-1.16.87-1.06.9-.98.9-.9.95-.83.97-.75 1-.7 1.03-.66 1.08-.6 1.12-.56 1.18-.5 1.23-.44 1.3-.4 1.4-.33 1.46-.28 1.58-.22 1.7-.13 1.8-.04 2 .07 2.14.18 2.35.32 2.58.5 2.8.7 3.1.95 3.38 1.24 3.67 1.58 3.97 1.96 4.24 2.38 4.43 2.82 4.53 3.23 4.5 3.6 4.33 3.85 4.05 4 .7.8h.02" stroke="#3a414a" stroke-linejoin="round" fill="none"/><path d="M-118.82 951.63l-.24.46" stroke="#3a414a" fill="none"/><path d="M-19.45 977.73c0 8.28-6.7 15-15 15-8.28 0-15-6.72-15-15 0-8.3 6.72-15 15-15 8.3 0 15 6.7 15 15z" stroke="#3a414a" fill="#3a414a"/><path d="M-300 911.85a6 6 0 0 1 6-6h71.57a6 6 0 0 1 6 6v48a6 6 0 0 1-6 6H-294a6 6 0 0 1-6-6z" stroke="#000" stroke-opacity="0" fill="#fff" fill-opacity="0"/><use xlink:href="#a" transform="matrix(1,0,0,1,-295,910.8478500448537) translate(30.82716049382716 30.27777777777778)"/><path d="M-80.85 1011.85a6 6 0 0 1 6-6h71.57a6 6 0 0 1 6 6v48a6 6 0 0 1-6 6h-71.57a6 6 0 0 1-6-6z" stroke="#000" stroke-opacity="0" fill="#fff" fill-opacity="0"/><use xlink:href="#d" transform="matrix(1,0,0,1,-75.85400415638026,1010.8478500448537) translate(30.82716049382716 30.27777777777778)"/><path d="M-480 911.85a6 6 0 0 1 6-6h71.57a6 6 0 0 1 6 6v48a6 6 0 0 1-6 6H-474a6 6 0 0 1-6-6z" stroke="#000" stroke-opacity="0" fill="#fff" fill-opacity="0"/><use xlink:href="#g" transform="matrix(1,0,0,1,-475,910.8478500448537) translate(27.154320987654323 30.27777777777778)"/><path d="M-222 1093.53a4.37 4.37 0 0 1 5.72 4.17v93.2a4.37 4.37 0 0 1-5.72 4.18l-152.3-48.94a1.93 1.93 0 0 1 0-3.67z" stroke="#3a414a" fill="#fff"/><path d="M-215.28 1144.3l1.1-.03 1.5-.1 1.38-.16 1.3-.2 1.2-.26 1.16-.3 1.1-.33 1.04-.37 1-.4.98-.47.95-.5.9-.53.9-.58.9-.63.87-.68.86-.75.86-.82.85-.9.86-.97.87-1.07.88-1.2.9-1.36.9-1.54.94-1.75.97-2.03 1-2.4 1.07-2.9 1.15-3.64 1.28-4.8 1.57-7.26 6.84-38.15 1.3-4.83 1.14-3.63 1.07-2.9 1.02-2.4.97-2.04.93-1.76.9-1.53.9-1.34.88-1.2.88-1.1.86-.97.86-.9.85-.8.87-.76.87-.68.87-.63.9-.6.92-.52.93-.5.97-.44 1-.4 1.06-.4 1.1-.33 1.14-.3 1.22-.25 1.3-.2 1.38-.17 1.48-.1 1.12-.02" stroke="#3a414a" stroke-linejoin="round" fill="none"/><path d="M-215.26 1144.8h-.52v-1h.5zM-147 1035.47l.06.5h-.58v-1h.58z" stroke="#3a414a" stroke-width=".05" fill="#3a414a"/><path d="M-299.86 1126a6 6 0 0 1 6-6h71.58a6 6 0 0 1 6 6v44.52a6 6 0 0 1-6 6h-71.58a6 6 0 0 1-6-6z" stroke="#000" stroke-opacity="0" fill="#fff" fill-opacity="0"/><use xlink:href="#b" transform="matrix(1,0,0,1,-294.85509670650976,1125) translate(30.82716049382716 26.59027777777778)"/><path d="M3.72 1040h100.8" stroke="#3a414a" stroke-linejoin="round" fill="none"/><path d="M3.73 1040.5h-.5v-1h.5z" stroke="#3a414a" stroke-width=".05" fill="#3a414a"/><path d="M104.5 1040h.5" stroke="#3a414a" fill="none"/><path d="M-119.25 1035.47c0 7.67-6.1 13.88-13.63 13.88-7.52 0-13.62-6.2-13.62-13.88 0-7.66 6.1-13.87 13.63-13.87 7.52 0 13.62 6.2 13.62 13.87z" stroke="#3a414a" fill-opacity="0"/><defs><path fill="#3a414a" d="M27 0v-27h64v-190l-56 39v-29l58-41h29v221h61V0H27" id="h"/><use transform="matrix(0.06172839506172839,0,0,0.06172839506172839,0,0)" xlink:href="#h" id="a"/><path fill="#3a414a" d="M101-251c82-7 93 87 43 132L82-64C71-53 59-42 53-27h129V0H18c2-99 128-94 128-182 0-28-16-43-45-43s-46 15-49 41l-32-3c6-41 34-60 81-64" id="i"/><use transform="matrix(0.06172839506172839,0,0,0.06172839506172839,0,0)" xlink:href="#i" id="b"/><path fill="#3a414a" d="M141-36C126-15 110 5 73 4 37 3 15-17 15-53c-1-64 63-63 125-63 3-35-9-54-41-54-24 1-41 7-42 31l-33-3c5-37 33-52 76-52 45 0 72 20 72 64v82c-1 20 7 32 28 27v20c-31 9-61-2-59-35zM48-53c0 20 12 33 32 33 41-3 63-29 60-74-43 2-92-5-92 41" id="j"/><path fill="#3a414a" d="M33-261c38 41 65 92 65 168S71 34 33 75H2C39 34 66-17 66-93S39-220 2-261h31" id="k"/><g id="c"><use transform="matrix(0.06172839506172839,0,0,0.06172839506172839,0,0)" xlink:href="#j"/><use transform="matrix(0.06172839506172839,0,0,0.06172839506172839,12.345679012345679,0)" xlink:href="#k"/></g><path fill="#3a414a" d="M126-127c33 6 58 20 58 59 0 88-139 92-164 29-3-8-5-16-6-25l32-3c6 27 21 44 54 44 32 0 52-15 52-46 0-38-36-46-79-43v-28c39 1 72-4 72-42 0-27-17-43-46-43-28 0-47 15-49 41l-32-3c6-42 35-63 81-64 48-1 79 21 79 65 0 36-21 52-52 59" id="l"/><use transform="matrix(0.06172839506172839,0,0,0.06172839506172839,0,0)" xlink:href="#l" id="d"/><path fill="#3a414a" d="M115-194c53 0 69 39 70 98 0 66-23 100-70 100C84 3 66-7 56-30L54 0H23l1-261h32v101c10-23 28-34 59-34zm-8 174c40 0 45-34 45-75 0-40-5-75-45-74-42 0-51 32-51 76 0 43 10 73 51 73" id="m"/><g id="e"><use transform="matrix(0.06172839506172839,0,0,0.06172839506172839,0,0)" xlink:href="#m"/><use transform="matrix(0.06172839506172839,0,0,0.06172839506172839,12.345679012345679,0)" xlink:href="#k"/></g><path fill="#3a414a" d="M96-169c-40 0-48 33-48 73s9 75 48 75c24 0 41-14 43-38l32 2c-6 37-31 61-74 61-59 0-76-41-82-99-10-93 101-131 147-64 4 7 5 14 7 22l-32 3c-4-21-16-35-41-35" id="n"/><g id="f"><use transform="matrix(0.06172839506172839,0,0,0.06172839506172839,0,0)" xlink:href="#n"/><use transform="matrix(0.06172839506172839,0,0,0.06172839506172839,11.11111111111111,0)" xlink:href="#k"/></g><path fill="#3a414a" d="M85-194c31 0 48 13 60 33l-1-100h32l1 261h-30c-2-10 0-23-3-31C134-8 116 4 85 4 32 4 16-35 15-94c0-66 23-100 70-100zm9 24c-40 0-46 34-46 75 0 40 6 74 45 74 42 0 51-32 51-76 0-42-9-74-50-73" id="o"/><g id="g"><use transform="matrix(0.06172839506172839,0,0,0.06172839506172839,0,0)" xlink:href="#o"/><use transform="matrix(0.06172839506172839,0,0,0.06172839506172839,12.345679012345679,0)" xlink:href="#k"/></g></defs></g></svg>