<svg xmlns="http://www.w3.org/2000/svg" xmlns:xlink="http://www.w3.org/1999/xlink" xmlns:lucid="lucid" width="602.5" height="335"><g transform="translate(-59.5 -40)" lucid:page-tab-id="0_0"><path d="M0 0h1000v500H0z" fill="#fff"/><path d="M80 195.04v-77.28a7.43 7.43 0 0 1 5.86-7.26l228.27-49.23A4.84 4.84 0 0 1 320 66v198a8.5 8.5 0 0 1-5.66 8L85.66 353a4.24 4.24 0 0 1-5.66-4z" stroke="#3a414a" fill="#fff"/><path d="M344.17 146.97" stroke="#3a414a" fill="none"/><path d="M160 196.87v-66.12a7.48 7.48 0 0 1 5.86-7.3l33.28-7.4a4.8 4.8 0 0 1 5.86 4.7v98a4.53 4.53 0 0 0 5.77 4.35l58.46-16.7a4.53 4.53 0 0 1 5.77 4.35v38a8.1 8.1 0 0 1-5.74 7.75L165.74 288a4.45 4.45 0 0 1-5.74-4.25z" stroke="#3a414a" fill="#f2f3f5"/><path d="M180 180c0 22.1-13.43 40-30 40s-30-17.9-30-40 13.43-40 30-40 30 17.9 30 40zM280 120c0 22.1-13.43 40-30 40s-30-17.9-30-40 13.43-40 30-40 30 17.9 30 40zM240 260c0 22.1-13.43 40-30 40s-30-17.9-30-40 13.43-40 30-40 30 17.9 30 40z" stroke="#3a414a" fill-opacity="0"/><path d="M400 120c0 11.05-8.95 20-20 20s-20-8.95-20-20 8.95-20 20-20 20 8.95 20 20z" stroke="#3a414a" fill="#fff"/><use xlink:href="#a" transform="matrix(1,0,0,1,365,105) translate(5.617283950617287 17.97222222222222)"/><path d="M380 250c0 11.05-8.95 20-20 20s-20-8.95-20-20 8.95-20 20-20 20 8.95 20 20z" stroke="#3a414a" fill="#fff"/><use xlink:href="#b" transform="matrix(1,0,0,1,345,235) translate(5.617283950617287 17.97222222222222)"/><path d="M380 185c0 11.05-8.95 20-20 20s-20-8.95-20-20 8.95-20 20-20 20 8.95 20 20z" stroke="#3a414a" fill="#fff"/><use xlink:href="#c" transform="matrix(1,0,0,1,345,170) translate(5.617283950617287 17.97222222222222)"/><path d="M259.18 158.7l113.86-19.3" stroke="#3a414a" fill="none"/><path d="M259.28 159.2l-3.47.58v-.06l1.64-.43 1.73-.7zM374.43 139.68l-1.32.22-.13-.8z" stroke="#3a414a" stroke-width=".05" fill="#3a414a"/><path d="M258.66 81.08l113.58 19.75" stroke="#3a414a" fill="none"/><path d="M258.76 80.6l-.1.56-2.86-.93-.53-.1.03-.14zM373.52 100.55l-1.35.64.15-.86z" stroke="#3a414a" stroke-width=".05" fill="#3a414a"/><path d="M218.86 298.8l134.3-29.33" stroke="#3a414a" fill="none"/><path d="M218.98 299.3l-3.43.74-.05-.24 1.94-.5 1.4-.58zM354.47 269.7l-1.23.26-.18-.82z" stroke="#3a414a" stroke-width=".05" fill="#3a414a"/><path d="M219.6 221.4l133.5 9.1" stroke="#3a414a" fill="none"/><path d="M219.64 220.9l-.05.7-.9-.43-1.34-.44zM355.5 230.15l-1.97.4-.45.2.05-.76z" stroke="#3a414a" stroke-width=".05" fill="#3a414a"/><path d="M158 140.84l196.3 24.4" stroke="#3a414a" fill="none"/><path d="M158.06 140.34l-.07.6-2.2-.7-1.23-.25v-.1zM356.36 164.98l-2.1.4.1-.65z" stroke="#3a414a" stroke-width=".05" fill="#3a414a"/><path d="M157.96 219.24l194.56-15.08" stroke="#3a414a" fill="none"/><path d="M158 219.74l-3.2.25 2.64-.7.52-.22zM354.08 204.54l-1.54.12-.06-.75z" stroke="#3a414a" stroke-width=".05" fill="#3a414a"/><path d="M600 185c0 22.1-17.9 40-40 40s-40-17.9-40-40 17.9-40 40-40 40 17.9 40 40z" stroke="#3a414a" fill="#fff"/><use xlink:href="#d" transform="matrix(1,0,0,1,525,150) translate(24.96148148148148 40.338166666666666)"/><path d="M430 115a6 6 0 0 1 6-6h68a6 6 0 0 1 6 6v35.3a6 6 0 0 1-6 6h-68a6 6 0 0 1-6-6z" stroke="#000" stroke-opacity="0" fill="#fff" fill-opacity="0"/><use xlink:href="#e" transform="matrix(1,0,0,1,435,114) translate(26.48523456790124 23.039555555555552)"/><path d="M400.95 120.2L520 176.38" stroke="#3a414a" fill="none"/><path d="M401.18 119.77l-.43.9-.3-.15.05-.5-.02-.58zM520.54 176.08l-.2 1-.57-.26.43-.9z" stroke="#3a414a" stroke-width=".05" fill="#3a414a"/><path d="M381 185h138" stroke="#3a414a" fill="none"/><path d="M381 185.5h-.56l.06-.48-.02-.52h.53zM519.5 185l.02.5H519v-1h.53z" stroke="#3a414a" stroke-width=".05" fill="#3a414a"/><path d="M380.97 249.83l140.82-50.15" stroke="#3a414a" fill="none"/><path d="M381.15 250.3l-.7.25.05-.53-.02-.54.34-.12zM522.45 199.98l-.5.18-.34-.94.47-.17z" stroke="#3a414a" stroke-width=".05" fill="#3a414a"/><path d="M400 158.7a6 6 0 0 1 6-6h68a6 6 0 0 1 6 6V194a6 6 0 0 1-6 6h-68a6 6 0 0 1-6-6z" stroke="#000" stroke-opacity="0" fill="#fff" fill-opacity="0"/><use xlink:href="#f" transform="matrix(1,0,0,1,405,157.68948127023702) translate(26.48523456790124 23.039555555555552)"/><path d="M400 226a6 6 0 0 1 6-6h68a6 6 0 0 1 6 6v35.3a6 6 0 0 1-6 6h-68a6 6 0 0 1-6-6z" stroke="#000" stroke-opacity="0" fill="#fff" fill-opacity="0"/><use xlink:href="#g" transform="matrix(1,0,0,1,405,225) translate(26.48523456790124 23.039555555555552)"/><path d="M601 185h58.5" stroke="#3a414a" fill="none"/><path d="M601 185.5h-.53l.03-.5-.02-.5h.53z" stroke="#3a414a" stroke-width=".05" fill="#3a414a"/><path d="M659.5 185h.5" stroke="#3a414a" fill="none"/><defs><path fill="#3a414a" d="M30-248c87 1 191-15 191 75 0 78-77 80-158 76V0H30v-248zm33 125c57 0 124 11 124-50 0-59-68-47-124-48v98" id="h"/><path fill="#3a414a" d="M27 0v-27h64v-190l-56 39v-29l58-41h29v221h61V0H27" id="i"/><g id="a"><use transform="matrix(0.049382716049382706,0,0,0.049382716049382706,0,0)" xlink:href="#h"/><use transform="matrix(0.03456790123456789,0,0,0.03456790123456789,11.85185185185185,2.488888888888888)" xlink:href="#i"/></g><path fill="#3a414a" d="M126-127c33 6 58 20 58 59 0 88-139 92-164 29-3-8-5-16-6-25l32-3c6 27 21 44 54 44 32 0 52-15 52-46 0-38-36-46-79-43v-28c39 1 72-4 72-42 0-27-17-43-46-43-28 0-47 15-49 41l-32-3c6-42 35-63 81-64 48-1 79 21 79 65 0 36-21 52-52 59" id="j"/><g id="b"><use transform="matrix(0.049382716049382706,0,0,0.049382716049382706,0,0)" xlink:href="#h"/><use transform="matrix(0.03456790123456789,0,0,0.03456790123456789,11.85185185185185,2.488888888888888)" xlink:href="#j"/></g><path fill="#3a414a" d="M101-251c82-7 93 87 43 132L82-64C71-53 59-42 53-27h129V0H18c2-99 128-94 128-182 0-28-16-43-45-43s-46 15-49 41l-32-3c6-41 34-60 81-64" id="k"/><g id="c"><use transform="matrix(0.049382716049382706,0,0,0.049382716049382706,0,0)" xlink:href="#h"/><use transform="matrix(0.03456790123456789,0,0,0.03456790123456789,11.85185185185185,2.488888888888888)" xlink:href="#k"/></g><path fill="#3a414a" d="M140-251c81 0 123 46 123 126C263-46 219 4 140 4 59 4 17-45 17-125s42-126 123-126zm0 227c63 0 89-41 89-101s-29-99-89-99c-61 0-89 39-89 99S79-25 140-24zM88-140h103v29H88v-29" id="l"/><use transform="matrix(0.0717037037037037,0,0,0.0717037037037037,0,0)" xlink:href="#l" id="d"/><path fill="#3a414a" d="M206 0h-36l-40-164L89 0H53L-1-190h32L70-26l43-164h34l41 164 42-164h31" id="m"/><g id="e"><use transform="matrix(0.04701234567901232,0,0,0.04701234567901232,0,0)" xlink:href="#m"/><use transform="matrix(0.02426666666666664,0,0,0.02426666666666664,12.176197530864192,1.747199999999998)" xlink:href="#i"/></g><g id="f"><use transform="matrix(0.04701234567901232,0,0,0.04701234567901232,0,0)" xlink:href="#m"/><use transform="matrix(0.02426666666666664,0,0,0.02426666666666664,12.176197530864192,1.747199999999998)" xlink:href="#k"/></g><g id="g"><use transform="matrix(0.04701234567901232,0,0,0.04701234567901232,0,0)" xlink:href="#m"/><use transform="matrix(0.02426666666666664,0,0,0.02426666666666664,12.176197530864192,1.747199999999998)" xlink:href="#j"/></g></defs></g></svg>