<svg xmlns="http://www.w3.org/2000/svg" xmlns:xlink="http://www.w3.org/1999/xlink" xmlns:lucid="lucid" width="561" height="747.34"><g transform="translate(440.5 -423.95833333333337)" lucid:page-tab-id="0_0"><path d="M-500 0H500v1500H-500z" fill="#fff"/><path d="M-220 493c0 16.57-13.43 30-30 30s-30-13.43-30-30 13.43-30 30-30 30 13.43 30 30z" stroke="#3a414a" fill="#fff"/><use xlink:href="#a" transform="matrix(1,0,0,1,-275,468) translate(18.82716049382716 30.27777777777778)"/><path d="M-220 693c0 16.57-13.43 30-30 30s-30-13.43-30-30 13.43-30 30-30 30 13.43 30 30z" stroke="#3a414a" fill="#fff"/><use xlink:href="#b" transform="matrix(1,0,0,1,-275,668) translate(18.82716049382716 30.27777777777778)"/><path d="M100 493c0 16.57-13.43 30-30 30s-30-13.43-30-30 13.43-30 30-30 30 13.43 30 30zM100 693c0 16.57-13.43 30-30 30s-30-13.43-30-30 13.43-30 30-30 30 13.43 30 30zM-40 573c0 16.57-13.43 30-30 30s-30-13.43-30-30 13.43-30 30-30 30 13.43 30 30zM-40 693c0 16.57-13.43 30-30 30s-30-13.43-30-30 13.43-30 30-30 30 13.43 30 30z" stroke="#3a414a" fill="#fff"/><path d="M-226.23 673.23l116.76-74.92" stroke="#3a414a" fill="none"/><path d="M-225.95 673.64l-.4.26-.6-.8.46-.3z" stroke="#3a414a" stroke-width=".05" fill="#3a414a"/><path d="M-97.05 590.33l-9.5 11.6-5-7.8z" stroke="#3a414a" fill="#3a414a"/><path d="M-219 693h102.12" stroke="#3a414a" fill="none"/><path d="M-219 693.5h-.54l.04-.5-.02-.5h.53z" stroke="#3a414a" stroke-width=".05" fill="#3a414a"/><path d="M-102.12 693l-14.26 4.63v-9.26z" stroke="#3a414a" fill="#3a414a"/><path d="M-39 693h62.12" stroke="#3a414a" fill="none"/><path d="M-39 693.5h-.54l.04-.5-.02-.5h.53z" stroke="#3a414a" stroke-width=".05" fill="#3a414a"/><path d="M37.88 693l-14.26 4.63v-9.26z" stroke="#3a414a" fill="#3a414a"/><path d="M-219 493H23.12" stroke="#3a414a" fill="none"/><path d="M-219 493.5h-.54l.04-.5-.02-.5h.53z" stroke="#3a414a" stroke-width=".05" fill="#3a414a"/><path d="M37.88 493l-14.26 4.63v-9.26z" stroke="#3a414a" fill="#3a414a"/><path d="M-42.14 559.58l71.67-43.1" stroke="#3a414a" fill="none"/><path d="M-41.87 560l-.47.27-.46-.88.4-.26z" stroke="#3a414a" stroke-width=".05" fill="#3a414a"/><path d="M42.18 508.88l-9.84 11.33-4.77-7.94z" stroke="#3a414a" fill="#3a414a"/><path d="M-70 662v-42.12" stroke="#3a414a" stroke-linejoin="round" fill="none"/><path d="M-69.5 662.54l-.5-.04-.5.02V662h1z" stroke="#3a414a" stroke-width=".05" fill="#3a414a"/><path d="M-70 605.12l4.64 14.26h-9.28z" stroke="#3a414a" fill="#3a414a"/><path d="M-230.7 717.02l44 13.8 27.62 7.38 20.3 4.52 16.3 2.9 13.82 1.9 12.2 1.13 11.13.56 10.4.1 10-.33 9.77-.73 9.8-1.15 10.02-1.63 10.55-2.15 11.44-2.83L-.5 736.7l15.3-5.2 19.83-7.67 1.32-.57" stroke="#3a414a" stroke-linejoin="round" fill="none"/><path d="M-230.53 716.54l-.3.96-.82-.26.97-.75z" stroke="#3a414a" stroke-width=".05" fill="#3a414a"/><path d="M49.54 717.5l-11.3 9.85-3.64-8.52z" stroke="#3a414a" fill="#3a414a"/><path d="M-420 450.46a6 6 0 0 1 6-6h68a6 6 0 0 1 6 6v33.5a6 6 0 0 1-6 6h-68a6 6 0 0 1-6-6z" stroke="#000" stroke-opacity="0" fill="#fff" fill-opacity="0"/><use xlink:href="#c" transform="matrix(1,0,0,1,-415,449.45833333333337) translate(12.808641975308642 22.27777777777778)"/><use xlink:href="#d" transform="matrix(1,0,0,1,-415,449.45833333333337) translate(25.154320987654323 22.27777777777778)"/><use xlink:href="#e" transform="matrix(1,0,0,1,-415,449.45833333333337) translate(38.672839506172835 22.27777777777778)"/><path d="M-220 913c0 16.57-13.43 30-30 30s-30-13.43-30-30 13.43-30 30-30 30 13.43 30 30zM-220 1113c0 16.57-13.43 30-30 30s-30-13.43-30-30 13.43-30 30-30 30 13.43 30 30zM100 913c0 16.57-13.43 30-30 30s-30-13.43-30-30 13.43-30 30-30 30 13.43 30 30z" stroke="#3a414a" fill="#fff"/><use xlink:href="#a" transform="matrix(1,0,0,1,45,888) translate(18.82716049382716 30.27777777777778)"/><path d="M100 1113c0 16.57-13.43 30-30 30s-30-13.43-30-30 13.43-30 30-30 30 13.43 30 30z" stroke="#3a414a" fill="#fff"/><use xlink:href="#b" transform="matrix(1,0,0,1,45,1088) translate(18.82716049382716 30.27777777777778)"/><path d="M-40 993c0 16.57-13.43 30-30 30s-30-13.43-30-30 13.43-30 30-30 30 13.43 30 30zM-40 1113c0 16.57-13.43 30-30 30s-30-13.43-30-30 13.43-30 30-30 30 13.43 30 30z" stroke="#3a414a" fill="#fff"/><use xlink:href="#b" transform="matrix(1,0,0,1,-94.99999999999997,1088) translate(18.82716049382716 30.27777777777778)"/><path d="M-226.23 1093.23l116.76-74.92" stroke="#3a414a" fill="none"/><path d="M-225.95 1093.64l-.4.26-.6-.8.46-.3z" stroke="#3a414a" stroke-width=".05" fill="#3a414a"/><path d="M-97.05 1010.33l-9.5 11.6-5-7.8z" stroke="#3a414a" fill="#3a414a"/><path d="M-219 1113h102.12" stroke="#3a414a" fill="none"/><path d="M-219 1113.5h-.54l.04-.5-.02-.5h.53z" stroke="#3a414a" stroke-width=".05" fill="#3a414a"/><path d="M-102.12 1113l-14.26 4.63v-9.27z" stroke="#3a414a" fill="#3a414a"/><path d="M-39 1113h62.12" stroke="#3a414a" fill="none"/><path d="M-39 1113.5h-.54l.04-.5-.02-.5h.53z" stroke="#3a414a" stroke-width=".05" fill="#3a414a"/><path d="M37.88 1113l-14.26 4.63v-9.27z" stroke="#3a414a" fill="#3a414a"/><path d="M-219 913H23.12" stroke="#3a414a" fill="none"/><path d="M-219 913.5h-.54l.04-.5-.02-.5h.53z" stroke="#3a414a" stroke-width=".05" fill="#3a414a"/><path d="M37.88 913l-14.26 4.63v-9.26z" stroke="#3a414a" fill="#3a414a"/><path d="M-42.14 979.58l71.67-43.1" stroke="#3a414a" fill="none"/><path d="M-41.87 980l-.47.27-.46-.88.4-.26z" stroke="#3a414a" stroke-width=".05" fill="#3a414a"/><path d="M42.18 928.88l-9.84 11.33-4.77-7.94z" stroke="#3a414a" fill="#3a414a"/><path d="M-70 1082v-42.12" stroke="#3a414a" stroke-linejoin="round" fill="none"/><path d="M-69.5 1082.54l-.5-.04-.5.02v-.53h1z" stroke="#3a414a" stroke-width=".05" fill="#3a414a"/><path d="M-70 1025.12l4.64 14.26h-9.28z" stroke="#3a414a" fill="#3a414a"/><path d="M-230.7 1137.02l44 13.8 27.62 7.38 20.3 4.52 16.3 2.9 13.82 1.9 12.2 1.13 11.13.56 10.4.1 10-.33 9.77-.73 9.8-1.15 10.02-1.63 10.55-2.15 11.44-2.83 12.87-3.78 15.3-5.2 19.83-7.67 1.32-.56" stroke="#3a414a" stroke-linejoin="round" fill="none"/><path d="M-230.53 1136.54l-.3.96-.82-.26.97-.75z" stroke="#3a414a" stroke-width=".05" fill="#3a414a"/><path d="M49.54 1137.5l-11.3 9.85-3.64-8.52z" stroke="#3a414a" fill="#3a414a"/><path d="M-406.25 866a6 6 0 0 1 6-6h40.5a6 6 0 0 1 6 6v33.5a6 6 0 0 1-6 6h-40.5a6 6 0 0 1-6-6z" stroke="#000" stroke-opacity="0" fill="#fff" fill-opacity="0"/><g><use xlink:href="#f" transform="matrix(1,0,0,1,-401.25,865) translate(15.327160493827162 22.27777777777778)"/></g><defs><path fill="#3a414a" d="M27 0v-27h64v-190l-56 39v-29l58-41h29v221h61V0H27" id="g"/><use transform="matrix(0.06172839506172839,0,0,0.06172839506172839,0,0)" xlink:href="#g" id="a"/><path fill="#3a414a" d="M101-251c68 0 85 55 85 127S166 4 100 4C33 4 14-52 14-124c0-73 17-127 87-127zm-1 229c47 0 54-49 54-102s-4-102-53-102c-51 0-55 48-55 102 0 53 5 102 54 102" id="h"/><use transform="matrix(0.06172839506172839,0,0,0.06172839506172839,0,0)" xlink:href="#h" id="b"/><path fill="#3a414a" d="M59-47c-2 24 18 29 38 22v24C64 9 27 4 27-40v-127H5v-23h24l9-43h21v43h35v23H59v120" id="i"/><use transform="matrix(0.06172839506172839,0,0,0.06172839506172839,0,0)" xlink:href="#i" id="c"/><path fill="#3a414a" d="M16-82v-28h88v28H16" id="j"/><use transform="matrix(0.06172839506172839,0,0,0.06172839506172839,0,0)" xlink:href="#j" id="d"/><path fill="#3a414a" d="M33-154v-36h34v36H33zM33 0v-36h34V0H33" id="k"/><g id="e"><use transform="matrix(0.06172839506172839,0,0,0.06172839506172839,0,0)" xlink:href="#g"/><use transform="matrix(0.06172839506172839,0,0,0.06172839506172839,12.345679012345679,0)" xlink:href="#k"/></g><g id="f"><use transform="matrix(0.06172839506172839,0,0,0.06172839506172839,0,0)" xlink:href="#i"/><use transform="matrix(0.06172839506172839,0,0,0.06172839506172839,6.172839506172839,0)" xlink:href="#k"/></g></defs></g></svg>