<svg xmlns="http://www.w3.org/2000/svg" xmlns:xlink="http://www.w3.org/1999/xlink" xmlns:lucid="lucid" width="574.75" height="1571.8"><g transform="translate(440.5 400.5)" lucid:page-tab-id="0_0"><path d="M-500-500H500v2000H-500z" fill="#fff"/><path d="M-220 93c0 16.57-13.43 30-30 30s-30-13.43-30-30 13.43-30 30-30 30 13.43 30 30z" stroke="#3a414a" fill="#fff"/><use xlink:href="#a" transform="matrix(1,0,0,1,-275,68) translate(18.82716049382716 30.27777777777778)"/><path d="M-220 293c0 16.57-13.43 30-30 30s-30-13.43-30-30 13.43-30 30-30 30 13.43 30 30z" stroke="#3a414a" fill="#fff"/><use xlink:href="#a" transform="matrix(1,0,0,1,-275,268) translate(18.82716049382716 30.27777777777778)"/><path d="M100 93c0 16.57-13.43 30-30 30s-30-13.43-30-30 13.43-30 30-30 30 13.43 30 30zM100 293c0 16.57-13.43 30-30 30s-30-13.43-30-30 13.43-30 30-30 30 13.43 30 30zM-40 173c0 16.57-13.43 30-30 30s-30-13.43-30-30 13.43-30 30-30 30 13.43 30 30z" stroke="#3a414a" fill="#fff"/><use xlink:href="#a" transform="matrix(1,0,0,1,-94.99999999999997,148) translate(18.82716049382716 30.27777777777778)"/><path d="M-40 293c0 16.57-13.43 30-30 30s-30-13.43-30-30 13.43-30 30-30 30 13.43 30 30z" stroke="#3a414a" fill="#fff"/><use xlink:href="#b" transform="matrix(1,0,0,1,-94.99999999999997,268) translate(18.82716049382716 30.27777777777778)"/><path d="M-226.23 273.23l116.76-74.92" stroke="#3a414a" fill="none"/><path d="M-225.95 273.64l-.4.26-.6-.8.46-.3z" stroke="#3a414a" stroke-width=".05" fill="#3a414a"/><path d="M-97.05 190.33l-9.5 11.6-5-7.8z" stroke="#3a414a" fill="#3a414a"/><path d="M-219 293h102.12" stroke="#3a414a" fill="none"/><path d="M-219 293.5h-.54l.04-.5-.02-.5h.53z" stroke="#3a414a" stroke-width=".05" fill="#3a414a"/><path d="M-102.12 293l-14.26 4.63v-9.26z" stroke="#3a414a" fill="#3a414a"/><path d="M-39 293h62.12" stroke="#3a414a" fill="none"/><path d="M-39 293.5h-.54l.04-.5-.02-.5h.53z" stroke="#3a414a" stroke-width=".05" fill="#3a414a"/><path d="M37.88 293l-14.26 4.63v-9.26z" stroke="#3a414a" fill="#3a414a"/><path d="M-219 93H23.12" stroke="#3a414a" fill="none"/><path d="M-219 93.5h-.54l.04-.5-.02-.5h.53z" stroke="#3a414a" stroke-width=".05" fill="#3a414a"/><path d="M37.88 93l-14.26 4.64v-9.28z" stroke="#3a414a" fill="#3a414a"/><path d="M-42.14 159.57l71.67-43.08" stroke="#3a414a" fill="none"/><path d="M-41.87 160l-.47.28-.46-.9.4-.24z" stroke="#3a414a" stroke-width=".05" fill="#3a414a"/><path d="M42.18 108.88l-9.84 11.33-4.77-7.94z" stroke="#3a414a" fill="#3a414a"/><path d="M-70 262v-42.12" stroke="#3a414a" stroke-linejoin="round" fill="none"/><path d="M-69.5 262.54l-.5-.04-.5.02V262h1z" stroke="#3a414a" stroke-width=".05" fill="#3a414a"/><path d="M-70 205.12l4.64 14.26h-9.28z" stroke="#3a414a" fill="#3a414a"/><path d="M-230.7 317.02l44 13.8 27.62 7.38 20.3 4.52 16.3 2.9 13.82 1.9 12.2 1.13 11.13.56 10.4.1 10-.33 9.77-.73 9.8-1.16 10.02-1.6 10.55-2.16 11.44-2.83L-.5 336.7l15.3-5.2 19.83-7.67 1.32-.56" stroke="#3a414a" stroke-linejoin="round" fill="none"/><path d="M-230.53 316.54l-.3.96-.82-.26.97-.75z" stroke="#3a414a" stroke-width=".05" fill="#3a414a"/><path d="M49.54 317.5l-11.3 9.85-3.64-8.53z" stroke="#3a414a" fill="#3a414a"/><path d="M-420 46a6 6 0 0 1 6-6h68a6 6 0 0 1 6 6v51.33a6 6 0 0 1-6 6h-68a6 6 0 0 1-6-6z" stroke="#000" stroke-opacity="0" fill="#fff" fill-opacity="0"/><use xlink:href="#c" transform="matrix(1,0,0,1,-415,45) translate(12.808641975308642 31.27777777777778)"/><use xlink:href="#d" transform="matrix(1,0,0,1,-415,45) translate(25.154320987654323 31.27777777777778)"/><use xlink:href="#e" transform="matrix(1,0,0,1,-415,45) translate(38.672839506172835 31.27777777777778)"/><path d="M-220 493c0 16.57-13.43 30-30 30s-30-13.43-30-30 13.43-30 30-30 30 13.43 30 30zM-220 693c0 16.57-13.43 30-30 30s-30-13.43-30-30 13.43-30 30-30 30 13.43 30 30zM100 493c0 16.57-13.43 30-30 30s-30-13.43-30-30 13.43-30 30-30 30 13.43 30 30z" stroke="#3a414a" fill="#fff"/><use xlink:href="#a" transform="matrix(1,0,0,1,45,468) translate(18.82716049382716 30.27777777777778)"/><path d="M100 693c0 16.57-13.43 30-30 30s-30-13.43-30-30 13.43-30 30-30 30 13.43 30 30z" stroke="#3a414a" fill="#fff"/><use xlink:href="#a" transform="matrix(1,0,0,1,45,668) translate(18.82716049382716 30.27777777777778)"/><path d="M-40 573c0 16.57-13.43 30-30 30s-30-13.43-30-30 13.43-30 30-30 30 13.43 30 30z" stroke="#3a414a" fill="#fff"/><use xlink:href="#b" transform="matrix(1,0,0,1,-94.99999999999997,548) translate(18.82716049382716 30.27777777777778)"/><path d="M-40 693c0 16.57-13.43 30-30 30s-30-13.43-30-30 13.43-30 30-30 30 13.43 30 30z" stroke="#3a414a" fill="#fff"/><use xlink:href="#a" transform="matrix(1,0,0,1,-94.99999999999997,668) translate(18.82716049382716 30.27777777777778)"/><path d="M-226.23 673.23l116.76-74.92" stroke="#3a414a" fill="none"/><path d="M-225.95 673.64l-.4.26-.6-.8.46-.3z" stroke="#3a414a" stroke-width=".05" fill="#3a414a"/><path d="M-97.05 590.33l-9.5 11.6-5-7.8z" stroke="#3a414a" fill="#3a414a"/><path d="M-219 693h102.12" stroke="#3a414a" fill="none"/><path d="M-219 693.5h-.54l.04-.5-.02-.5h.53z" stroke="#3a414a" stroke-width=".05" fill="#3a414a"/><path d="M-102.12 693l-14.26 4.63v-9.26z" stroke="#3a414a" fill="#3a414a"/><path d="M-39 693h62.12" stroke="#3a414a" fill="none"/><path d="M-39 693.5h-.54l.04-.5-.02-.5h.53z" stroke="#3a414a" stroke-width=".05" fill="#3a414a"/><path d="M37.88 693l-14.26 4.63v-9.26z" stroke="#3a414a" fill="#3a414a"/><path d="M-219 493H23.12" stroke="#3a414a" fill="none"/><path d="M-219 493.5h-.54l.04-.5-.02-.5h.53z" stroke="#3a414a" stroke-width=".05" fill="#3a414a"/><path d="M37.88 493l-14.26 4.63v-9.26z" stroke="#3a414a" fill="#3a414a"/><path d="M-42.14 559.58l71.67-43.1" stroke="#3a414a" fill="none"/><path d="M-41.87 560l-.47.27-.46-.88.4-.26z" stroke="#3a414a" stroke-width=".05" fill="#3a414a"/><path d="M42.18 508.88l-9.84 11.33-4.77-7.94z" stroke="#3a414a" fill="#3a414a"/><path d="M-70 662v-42.12" stroke="#3a414a" stroke-linejoin="round" fill="none"/><path d="M-69.5 662.54l-.5-.04-.5.02V662h1z" stroke="#3a414a" stroke-width=".05" fill="#3a414a"/><path d="M-70 605.12l4.64 14.26h-9.28z" stroke="#3a414a" fill="#3a414a"/><path d="M-230.7 717.02l44 13.8 27.62 7.38 20.3 4.52 16.3 2.9 13.82 1.9 12.2 1.13 11.13.56 10.4.1 10-.33 9.77-.73 9.8-1.15 10.02-1.63 10.55-2.15 11.44-2.83L-.5 736.7l15.3-5.2 19.83-7.67 1.32-.57" stroke="#3a414a" stroke-linejoin="round" fill="none"/><path d="M-230.53 716.54l-.3.96-.82-.26.97-.75z" stroke="#3a414a" stroke-width=".05" fill="#3a414a"/><path d="M49.54 717.5l-11.3 9.85-3.64-8.52z" stroke="#3a414a" fill="#3a414a"/><path d="M-420 450.46a6 6 0 0 1 6-6h68a6 6 0 0 1 6 6v33.5a6 6 0 0 1-6 6h-68a6 6 0 0 1-6-6z" stroke="#000" stroke-opacity="0" fill="#fff" fill-opacity="0"/><use xlink:href="#c" transform="matrix(1,0,0,1,-415,449.45833333333337) translate(12.808641975308642 22.27777777777778)"/><use xlink:href="#d" transform="matrix(1,0,0,1,-415,449.45833333333337) translate(25.154320987654323 22.27777777777778)"/><use xlink:href="#f" transform="matrix(1,0,0,1,-415,449.45833333333337) translate(38.672839506172835 22.27777777777778)"/><path d="M-220 913c0 16.57-13.43 30-30 30s-30-13.43-30-30 13.43-30 30-30 30 13.43 30 30zM-220 1113c0 16.57-13.43 30-30 30s-30-13.43-30-30 13.43-30 30-30 30 13.43 30 30zM100 913c0 16.57-13.43 30-30 30s-30-13.43-30-30 13.43-30 30-30 30 13.43 30 30z" stroke="#3a414a" fill="#fff"/><use xlink:href="#b" transform="matrix(1,0,0,1,45,888) translate(18.82716049382716 30.27777777777778)"/><path d="M100 1113c0 16.57-13.43 30-30 30s-30-13.43-30-30 13.43-30 30-30 30 13.43 30 30z" stroke="#3a414a" fill="#fff"/><use xlink:href="#a" transform="matrix(1,0,0,1,45,1088) translate(18.82716049382716 30.27777777777778)"/><path d="M-40 993c0 16.57-13.43 30-30 30s-30-13.43-30-30 13.43-30 30-30 30 13.43 30 30zM-40 1113c0 16.57-13.43 30-30 30s-30-13.43-30-30 13.43-30 30-30 30 13.43 30 30z" stroke="#3a414a" fill="#fff"/><path d="M-226.23 1093.23l116.76-74.92" stroke="#3a414a" fill="none"/><path d="M-225.95 1093.64l-.4.26-.6-.8.46-.3z" stroke="#3a414a" stroke-width=".05" fill="#3a414a"/><path d="M-97.05 1010.33l-9.5 11.6-5-7.8z" stroke="#3a414a" fill="#3a414a"/><path d="M-219 1113h102.12" stroke="#3a414a" fill="none"/><path d="M-219 1113.5h-.54l.04-.5-.02-.5h.53z" stroke="#3a414a" stroke-width=".05" fill="#3a414a"/><path d="M-102.12 1113l-14.26 4.63v-9.27z" stroke="#3a414a" fill="#3a414a"/><path d="M-39 1113h62.12" stroke="#3a414a" fill="none"/><path d="M-39 1113.5h-.54l.04-.5-.02-.5h.53z" stroke="#3a414a" stroke-width=".05" fill="#3a414a"/><path d="M37.88 1113l-14.26 4.63v-9.27z" stroke="#3a414a" fill="#3a414a"/><path d="M-219 913H23.12" stroke="#3a414a" fill="none"/><path d="M-219 913.5h-.54l.04-.5-.02-.5h.53z" stroke="#3a414a" stroke-width=".05" fill="#3a414a"/><path d="M37.88 913l-14.26 4.63v-9.26z" stroke="#3a414a" fill="#3a414a"/><path d="M-42.14 979.58l71.67-43.1" stroke="#3a414a" fill="none"/><path d="M-41.87 980l-.47.27-.46-.88.4-.26z" stroke="#3a414a" stroke-width=".05" fill="#3a414a"/><path d="M42.18 928.88l-9.84 11.33-4.77-7.94z" stroke="#3a414a" fill="#3a414a"/><path d="M-70 1082v-42.12" stroke="#3a414a" stroke-linejoin="round" fill="none"/><path d="M-69.5 1082.54l-.5-.04-.5.02v-.53h1z" stroke="#3a414a" stroke-width=".05" fill="#3a414a"/><path d="M-70 1025.12l4.64 14.26h-9.28z" stroke="#3a414a" fill="#3a414a"/><path d="M-230.7 1137.02l44 13.8 27.62 7.38 20.3 4.52 16.3 2.9 13.82 1.9 12.2 1.13 11.13.56 10.4.1 10-.33 9.77-.73 9.8-1.15 10.02-1.63 10.55-2.15 11.44-2.83 12.87-3.78 15.3-5.2 19.83-7.67 1.32-.56" stroke="#3a414a" stroke-linejoin="round" fill="none"/><path d="M-230.53 1136.54l-.3.96-.82-.26.97-.75z" stroke="#3a414a" stroke-width=".05" fill="#3a414a"/><path d="M49.54 1137.5l-11.3 9.85-3.64-8.52z" stroke="#3a414a" fill="#3a414a"/><path d="M-406.25 866a6 6 0 0 1 6-6h40.5a6 6 0 0 1 6 6v33.5a6 6 0 0 1-6 6h-40.5a6 6 0 0 1-6-6z" stroke="#000" stroke-opacity="0" fill="#fff" fill-opacity="0"/><use xlink:href="#g" transform="matrix(1,0,0,1,-401.25,865) translate(15.327160493827162 22.27777777777778)"/><path d="M-206.25-327c0 16.57-13.43 30-30 30s-30-13.43-30-30 13.43-30 30-30 30 13.43 30 30z" stroke="#3a414a" fill="#fff"/><use xlink:href="#a" transform="matrix(1,0,0,1,-261.25,-352) translate(18.82716049382716 30.27777777777778)"/><path d="M-206.25-127c0 16.57-13.43 30-30 30s-30-13.43-30-30 13.43-30 30-30 30 13.43 30 30z" stroke="#3a414a" fill="#fff"/><use xlink:href="#b" transform="matrix(1,0,0,1,-261.25,-152) translate(18.82716049382716 30.27777777777778)"/><path d="M113.75-327c0 16.57-13.43 30-30 30s-30-13.43-30-30 13.43-30 30-30 30 13.43 30 30zM113.75-127c0 16.57-13.43 30-30 30s-30-13.43-30-30 13.43-30 30-30 30 13.43 30 30zM-26.25-247c0 16.57-13.43 30-30 30s-30-13.43-30-30 13.43-30 30-30 30 13.43 30 30zM-26.25-127c0 16.57-13.43 30-30 30s-30-13.43-30-30 13.43-30 30-30 30 13.43 30 30z" stroke="#3a414a" fill="#fff"/><path d="M-212.48-146.77l116.76-74.92" stroke="#3a414a" fill="none"/><path d="M-212.2-146.36l-.4.26-.6-.8.46-.3z" stroke="#3a414a" stroke-width=".05" fill="#3a414a"/><path d="M-83.3-229.67l-9.5 11.6-5-7.8z" stroke="#3a414a" fill="#3a414a"/><path d="M-205.25-127h102.12" stroke="#3a414a" fill="none"/><path d="M-205.24-126.5h-.55l.05-.5-.02-.5h.53z" stroke="#3a414a" stroke-width=".05" fill="#3a414a"/><path d="M-88.37-127l-14.26 4.64v-9.27z" stroke="#3a414a" fill="#3a414a"/><path d="M-25.25-127h62.12" stroke="#3a414a" fill="none"/><path d="M-25.24-126.5h-.55l.05-.5-.02-.5h.53z" stroke="#3a414a" stroke-width=".05" fill="#3a414a"/><path d="M51.63-127l-14.26 4.64v-9.27z" stroke="#3a414a" fill="#3a414a"/><path d="M-205.25-327H36.87" stroke="#3a414a" fill="none"/><path d="M-205.24-326.5h-.55l.05-.5-.02-.5h.53z" stroke="#3a414a" stroke-width=".05" fill="#3a414a"/><path d="M51.63-327l-14.26 4.63v-9.26z" stroke="#3a414a" fill="#3a414a"/><path d="M-28.4-260.43L43.3-303.5" stroke="#3a414a" fill="none"/><path d="M-28.12-260l-.47.27-.45-.88.4-.26z" stroke="#3a414a" stroke-width=".05" fill="#3a414a"/><path d="M55.93-311.12L46.1-299.8l-4.78-7.94z" stroke="#3a414a" fill="#3a414a"/><path d="M-56.25-158v-42.12" stroke="#3a414a" stroke-linejoin="round" fill="none"/><path d="M-55.75-157.46l-.5-.04-.5.02v-.53h1z" stroke="#3a414a" stroke-width=".05" fill="#3a414a"/><path d="M-56.25-214.88l4.63 14.26h-9.27z" stroke="#3a414a" fill="#3a414a"/><path d="M-216.94-102.98l44 13.8 27.6 7.38 20.32 4.52 16.3 2.92 13.8 1.87 12.22 1.14 11.12.57 10.4.1 10-.33 9.77-.73 9.78-1.16 10.03-1.6 10.56-2.16L.4-79.5l12.86-3.78 15.3-5.2 19.82-7.67 1.32-.56" stroke="#3a414a" stroke-linejoin="round" fill="none"/><path d="M-216.78-103.46l-.3.96-.82-.26.97-.75z" stroke="#3a414a" stroke-width=".05" fill="#3a414a"/><path d="M63.3-102.5l-11.32 9.85-3.63-8.52z" stroke="#3a414a" fill="#3a414a"/><path d="M-406.25-374a6 6 0 0 1 6-6h68a6 6 0 0 1 6 6v51.33a6 6 0 0 1-6 6h-68a6 6 0 0 1-6-6z" stroke="#000" stroke-opacity="0" fill="#fff" fill-opacity="0"/><g><use xlink:href="#c" transform="matrix(1,0,0,1,-401.25,-375) translate(12.808641975308642 31.27777777777778)"/><use xlink:href="#d" transform="matrix(1,0,0,1,-401.25,-375) translate(25.154320987654323 31.27777777777778)"/><use xlink:href="#h" transform="matrix(1,0,0,1,-401.25,-375) translate(38.672839506172835 31.27777777777778)"/></g><defs><path fill="#3a414a" d="M101-251c68 0 85 55 85 127S166 4 100 4C33 4 14-52 14-124c0-73 17-127 87-127zm-1 229c47 0 54-49 54-102s-4-102-53-102c-51 0-55 48-55 102 0 53 5 102 54 102" id="i"/><use transform="matrix(0.06172839506172839,0,0,0.06172839506172839,0,0)" xlink:href="#i" id="a"/><path fill="#3a414a" d="M27 0v-27h64v-190l-56 39v-29l58-41h29v221h61V0H27" id="j"/><use transform="matrix(0.06172839506172839,0,0,0.06172839506172839,0,0)" xlink:href="#j" id="b"/><path fill="#3a414a" d="M59-47c-2 24 18 29 38 22v24C64 9 27 4 27-40v-127H5v-23h24l9-43h21v43h35v23H59v120" id="k"/><use transform="matrix(0.06172839506172839,0,0,0.06172839506172839,0,0)" xlink:href="#k" id="c"/><path fill="#3a414a" d="M16-82v-28h88v28H16" id="l"/><use transform="matrix(0.06172839506172839,0,0,0.06172839506172839,0,0)" xlink:href="#l" id="d"/><path fill="#3a414a" d="M101-251c82-7 93 87 43 132L82-64C71-53 59-42 53-27h129V0H18c2-99 128-94 128-182 0-28-16-43-45-43s-46 15-49 41l-32-3c6-41 34-60 81-64" id="m"/><path fill="#3a414a" d="M33-154v-36h34v36H33zM33 0v-36h34V0H33" id="n"/><g id="e"><use transform="matrix(0.06172839506172839,0,0,0.06172839506172839,0,0)" xlink:href="#m"/><use transform="matrix(0.06172839506172839,0,0,0.06172839506172839,12.345679012345679,0)" xlink:href="#n"/></g><g id="f"><use transform="matrix(0.06172839506172839,0,0,0.06172839506172839,0,0)" xlink:href="#j"/><use transform="matrix(0.06172839506172839,0,0,0.06172839506172839,12.345679012345679,0)" xlink:href="#n"/></g><g id="g"><use transform="matrix(0.06172839506172839,0,0,0.06172839506172839,0,0)" xlink:href="#k"/><use transform="matrix(0.06172839506172839,0,0,0.06172839506172839,6.172839506172839,0)" xlink:href="#n"/></g><path fill="#3a414a" d="M126-127c33 6 58 20 58 59 0 88-139 92-164 29-3-8-5-16-6-25l32-3c6 27 21 44 54 44 32 0 52-15 52-46 0-38-36-46-79-43v-28c39 1 72-4 72-42 0-27-17-43-46-43-28 0-47 15-49 41l-32-3c6-42 35-63 81-64 48-1 79 21 79 65 0 36-21 52-52 59" id="o"/><g id="h"><use transform="matrix(0.06172839506172839,0,0,0.06172839506172839,0,0)" xlink:href="#o"/><use transform="matrix(0.06172839506172839,0,0,0.06172839506172839,12.345679012345679,0)" xlink:href="#n"/></g></defs></g></svg>