<svg xmlns="http://www.w3.org/2000/svg" xmlns:xlink="http://www.w3.org/1999/xlink" xmlns:lucid="lucid" width="621" height="401"><g transform="translate(-479.49999999999994 60.5)" lucid:page-tab-id="0_0"><path d="M0-500h1500V500H0z" fill="#fff"/><path d="M564.44 84.4c0 17.1-14.42 30.95-32.22 30.95-17.8 0-32.22-13.85-32.22-30.94 0-17.08 14.43-30.93 32.22-30.93 17.8 0 32.22 13.85 32.22 30.94z" stroke="#3a414a" fill="#fff"/><use xlink:href="#a" transform="matrix(1,0,0,1,504.99999999999994,58.46827249209202) translate(19.598765432098766 30.47222222222222)"/><path d="M564.44 213.75c0 17.1-14.42 30.94-32.22 30.94-17.8 0-32.22-13.86-32.22-30.95 0-17.1 14.43-30.94 32.22-30.94 17.8 0 32.22 13.86 32.22 30.95z" stroke="#3a414a" fill="#fff"/><use xlink:href="#b" transform="matrix(1,0,0,1,504.99999999999994,187.8083403786267) translate(19.598765432098766 30.47222222222222)"/><path d="M756.97-9.06c0 17.1-14.43 30.95-32.22 30.95-17.8 0-32.22-13.87-32.22-30.96 0-17.1 14.42-30.94 32.22-30.94 17.8 0 32.22 13.85 32.22 30.94z" stroke="#3a414a" fill="#fff"/><use xlink:href="#c" transform="matrix(1,0,0,1,697.5272753464761,-35) translate(19.10493827160494 30.47222222222222)"/><path d="M756.97 145.66c0 17.08-14.43 30.94-32.22 30.94-17.8 0-32.22-13.86-32.22-30.94 0-17.1 14.42-30.95 32.22-30.95 17.8 0 32.22 13.87 32.22 30.95z" stroke="#3a414a" fill="#fff"/><use xlink:href="#d" transform="matrix(1,0,0,1,697.5272753464761,119.71262303512088) translate(19.10493827160494 30.47222222222222)"/><path d="M756.97 289.06c0 17.1-14.43 30.94-32.22 30.94-17.8 0-32.22-13.85-32.22-30.94 0-17.1 14.42-30.94 32.22-30.94 17.8 0 32.22 13.85 32.22 30.94z" stroke="#3a414a" fill="#fff"/><use xlink:href="#e" transform="matrix(1,0,0,1,697.5272753464761,263.1149507859517) translate(19.10493827160494 30.47222222222222)"/><path d="M949.5 83.77c0 17.1-14.43 30.94-32.22 30.94-17.8 0-32.23-13.84-32.23-30.93 0-17.1 14.43-30.94 32.23-30.94 17.8 0 32.22 13.85 32.22 30.94z" stroke="#3a414a" fill="#fff"/><use xlink:href="#f" transform="matrix(1,0,0,1,890.0545506929523,57.827573821072555) translate(19.10493827160494 30.47222222222222)"/><path d="M565.35 84.11L678.83.66" stroke="#3a414a" fill="none"/><path d="M565.65 84.5l-.75.57.05-.64v-.62l.1-.1z" stroke="#3a414a" stroke-width=".05" fill="#3a414a"/><path d="M690.72-8.1l-8.74 12.2-5.5-7.48z" stroke="#3a414a" fill="#3a414a"/><path d="M565.24 213.34l130.8-183.62" stroke="#3a414a" fill="none"/><path d="M565.65 213.62l-.78 1.1.08-.95v-.65z" stroke="#3a414a" stroke-width=".05" fill="#3a414a"/><path d="M704.6 17.7L700.1 32l-7.55-5.38z" stroke="#3a414a" fill="#3a414a"/><path d="M565.4 84.6l112.76 46.2" stroke="#3a414a" fill="none"/><path d="M565.6 84.14l-.37.93-.33-.13.05-.5v-.57z" stroke="#3a414a" stroke-width=".05" fill="#3a414a"/><path d="M691.83 136.4l-14.96-1.12 3.5-8.58z" stroke="#3a414a" fill="#3a414a"/><path d="M565.4 213.55L679 162.9" stroke="#3a414a" fill="none"/><path d="M565.62 214l-.72.32.05-.55v-.56l.26-.1z" stroke="#3a414a" stroke-width=".05" fill="#3a414a"/><path d="M692.5 156.88l-11.14 10.04-3.78-8.46z" stroke="#3a414a" fill="#3a414a"/><path d="M565.4 213.95l117.55 50.57" stroke="#3a414a" fill="none"/><path d="M565.6 213.5l-.38.9-.32-.12.05-.5v-.58z" stroke="#3a414a" stroke-width=".05" fill="#3a414a"/><path d="M696.5 270.35l-14.93-1.38 3.67-8.5z" stroke="#3a414a" fill="#3a414a"/><path d="M565.26 84.8L701.3 247.7" stroke="#3a414a" fill="none"/><path d="M565.66 84.48l-.77.64.05-.7v-.6l-.03-.22z" stroke="#3a414a" stroke-width=".05" fill="#3a414a"/><path d="M710.75 259.04l-12.7-7.98 7.1-5.94z" stroke="#3a414a" fill="#3a414a"/><path d="M757.92-8.83l122.1 62.57" stroke="#3a414a" fill="none"/><path d="M758.16-9.27l-.46.9-.27-.15.04-.52v-.58z" stroke="#3a414a" stroke-width=".05" fill="#3a414a"/><path d="M893.15 60.48l-14.8-2.38 4.22-8.25z" stroke="#3a414a" fill="#3a414a"/><path d="M757.92 145.44l111.9-54.5" stroke="#3a414a" fill="none"/><path d="M758.15 145.88l-.72.35.04-.56v-.57l.24-.12z" stroke="#3a414a" stroke-width=".05" fill="#3a414a"/><path d="M883.1 84.48l-10.8 10.4-4.06-8.32z" stroke="#3a414a" fill="#3a414a"/><path d="M757.77 288.66l128.04-168.3" stroke="#3a414a" fill="none"/><path d="M758.18 288.95l-.78 1.03.07-.9v-.68z" stroke="#3a414a" stroke-width=".05" fill="#3a414a"/><path d="M894.75 108.6l-4.95 14.16-7.38-5.62z" stroke="#3a414a" fill="#3a414a"/><path d="M949.5 207.54c0 17.1-14.43 30.94-32.22 30.94-17.8 0-32.23-13.85-32.23-30.94 0-17.1 14.43-30.94 32.23-30.94 17.8 0 32.22 13.85 32.22 30.94z" stroke="#3a414a" fill="#fff"/><use xlink:href="#g" transform="matrix(1,0,0,1,890.0545506929523,181.59767224916922) translate(19.10493827160494 30.47222222222222)"/><path d="M757.9 288.82l114.72-61.7" stroke="#3a414a" fill="none"/><path d="M758.16 289.25l-.73.4.04-.58v-.58l.22-.13z" stroke="#3a414a" stroke-width=".05" fill="#3a414a"/><path d="M885.62 220.13l-10.37 10.84-4.4-8.16z" stroke="#3a414a" fill="#3a414a"/><path d="M757.95 145.8l118.58 36.85" stroke="#3a414a" fill="none"/><path d="M758.1 145.33l-.3.95-.37-.1.04-.5v-.55z" stroke="#3a414a" stroke-width=".05" fill="#3a414a"/><path d="M890.63 187.03l-15 .2 2.75-8.86z" stroke="#3a414a" fill="#3a414a"/><path d="M752.9 7.74l152.93 156.63" stroke="#3a414a" fill="none"/><path d="M753.27 7.4l-.72.7-.26-.28.52-.88z" stroke="#3a414a" stroke-width=".05" fill="#3a414a"/><path d="M916.15 174.94l-13.3-6.97 6.65-6.48z" stroke="#3a414a" fill="#3a414a"/><path d="M1080 145.66c0 17.08-14.43 30.94-32.22 30.94-17.8 0-32.22-13.86-32.22-30.94 0-17.1 14.42-30.95 32.22-30.95 17.8 0 32.22 13.87 32.22 30.95z" stroke="#3a414a" fill="#fff"/><use xlink:href="#h" transform="matrix(1,0,0,1,1020.5555555555557,119.71262303512088) translate(23.055555555555557 30.47222222222222)"/><path d="M950.42 84.03l56.65 34.97" stroke="#3a414a" fill="none"/><path d="M950.7 83.6l-.53.87-.2-.14.03-.54v-.62z" stroke="#3a414a" stroke-width=".05" fill="#3a414a"/><path d="M1019.63 126.75l-14.57-3.54 4.87-7.88z" stroke="#3a414a" fill="#3a414a"/><path d="M950.43 207.28l57.18-34.34" stroke="#3a414a" fill="none"/><path d="M950.7 207.7l-.75.45.05-.6v-.6l.18-.1z" stroke="#3a414a" stroke-width=".05" fill="#3a414a"/><path d="M1020.26 165.34l-9.84 11.32-4.77-7.95z" stroke="#3a414a" fill="#3a414a"/><path d="M596.67 11.18h43.16v48.48h-43.16z" fill="#fff" fill-opacity="0"/><use xlink:href="#i" transform="matrix(1,0,0,1,601.6666666666666,16.180155529158995) translate(0 12.444444444444441)"/><path d="M575.38 80.5a6 6 0 0 1 6-6h52.45a6 6 0 0 1 6 6v18.93a6 6 0 0 1-6 6h-52.45a6 6 0 0 1-6-6z" fill="none"/><use xlink:href="#j" transform="matrix(1,0,0,1,575.3840877914952,74.48734104598948) translate(19.3425925925926 18.61111111111111)"/><path d="M564.44 120.7a6 6 0 0 1 6-6h20.23a6 6 0 0 1 6 6v18.95a6 6 0 0 1-6 6h-20.23a6 6 0 0 1-6-6z" fill="none"/><use xlink:href="#k" transform="matrix(1,0,0,1,564.4444444444445,114.71262303512091) translate(3.3425925925925988 18.61111111111111)"/><path d="M661.1 60.17h43.17v48.48H661.1z" fill="#fff" fill-opacity="0"/><use xlink:href="#l" transform="matrix(1,0,0,1,666.1111111111111,65.17248615694726) translate(0 12.444444444444441)"/><path d="M575.38 198.07a6 6 0 0 1 6-6h52.45a6 6 0 0 1 6 6V217a6 6 0 0 1-6 6h-52.45a6 6 0 0 1-6-6z" fill="none"/><use xlink:href="#m" transform="matrix(1,0,0,1,575.3840877914952,192.06893455268133) translate(19.3425925925926 18.61111111111111)"/><path d="M580.15 233.17a6 6 0 0 1 6-6h20.23a6 6 0 0 1 6 6v18.95a6 6 0 0 1-6 6h-20.23a6 6 0 0 1-6-6z" fill="none"/><use xlink:href="#n" transform="matrix(1,0,0,1,580.1525265621269,227.17242617892745) translate(3.3425925925925988 18.61111111111111)"/><path d="M804.9 264.1a6 6 0 0 1 6-6h20.22a6 6 0 0 1 6 6v18.96a6 6 0 0 1-6 6H810.9a6 6 0 0 1-6-6z" fill="none"/><use xlink:href="#o" transform="matrix(1,0,0,1,804.9020241308252,258.11495078595163) translate(3.3425925925925988 18.61111111111111)"/><path d="M772.68 202a6 6 0 0 1 6-6h20.22a6 6 0 0 1 6 6v23.5a6 6 0 0 1-6 6h-20.22a6 6 0 0 1-6-6z" fill="none"/><use xlink:href="#p" transform="matrix(1,0,0,1,772.679801908603,196.00575284375566) translate(3.3425925925925988 21.11111111111111)"/><path d="M790 139.9a6 6 0 0 1 6-6h20.22a6 6 0 0 1 6 6v23.5a6 6 0 0 1-6 6H796a6 6 0 0 1-6-6z" fill="none"/><use xlink:href="#q" transform="matrix(1,0,0,1,790,133.89655490155968) translate(3.3425925925925988 21.11111111111111)"/><path d="M772.68 104.4a6 6 0 0 1 6-6h20.22a6 6 0 0 1 6 6v23.5a6 6 0 0 1-6 6h-20.22a6 6 0 0 1-6-6z" fill="none"/><use xlink:href="#r" transform="matrix(1,0,0,1,772.679801908603,98.40633061776929) translate(3.3425925925925988 21.11111111111111)"/><path d="M809.67-3.06a6 6 0 0 1 6-6h20.22a6 6 0 0 1 6 6v23.5a6 6 0 0 1-6 6h-20.23a6 6 0 0 1-6-6z" fill="none"/><use xlink:href="#s" transform="matrix(1,0,0,1,809.6704629014571,-9.057475392975821) translate(3.3425925925925988 21.11111111111111)"/><path d="M804.9 42.3a6 6 0 0 1 6-6h20.22a6 6 0 0 1 6 6v23.5a6 6 0 0 1-6 6H810.9a6 6 0 0 1-6-6z" fill="none"/><use xlink:href="#t" transform="matrix(1,0,0,1,804.9020241308252,36.29713267557331) translate(3.3425925925925988 21.11111111111111)"/><path d="M965.2 72.67a6 6 0 0 1 6-6h20.23a6 6 0 0 1 6 6v23.5a6 6 0 0 1-6 6H971.2a6 6 0 0 1-6-6z" fill="none"/><use xlink:href="#u" transform="matrix(1,0,0,1,965.207077255079,66.66568495722102) translate(3.3425925925925988 21.11111111111111)"/><path d="M965.2 198.07a6 6 0 0 1 6-6h20.23a6 6 0 0 1 6 6v23.5a6 6 0 0 1-6 6H971.2a6 6 0 0 1-6-6z" fill="none"/><use xlink:href="#v" transform="matrix(1,0,0,1,965.207077255079,192.06893455268133) translate(3.3425925925925988 21.11111111111111)"/><defs><path fill="#3a414a" d="M141 0L90-78 38 0H4l68-98-65-92h35l48 74 47-74h35l-64 92 68 98h-35" id="w"/><path fill="#3a414a" d="M27 0v-27h64v-190l-56 39v-29l58-41h29v221h61V0H27" id="x"/><g id="a"><use transform="matrix(0.049382716049382706,0,0,0.049382716049382706,0,0)" xlink:href="#w"/><use transform="matrix(0.03456790123456789,0,0,0.03456790123456789,8.888888888888888,2.488888888888888)" xlink:href="#x"/></g><path fill="#3a414a" d="M101-251c82-7 93 87 43 132L82-64C71-53 59-42 53-27h129V0H18c2-99 128-94 128-182 0-28-16-43-45-43s-46 15-49 41l-32-3c6-41 34-60 81-64" id="y"/><g id="b"><use transform="matrix(0.049382716049382706,0,0,0.049382716049382706,0,0)" xlink:href="#w"/><use transform="matrix(0.03456790123456789,0,0,0.03456790123456789,8.888888888888888,2.488888888888888)" xlink:href="#y"/></g><path fill="#3a414a" d="M106-169C34-169 62-67 57 0H25v-261h32l-1 103c12-21 28-36 61-36 89 0 53 116 60 194h-32v-121c2-32-8-49-39-48" id="z"/><path fill="#3a414a" d="M126-127c33 6 58 20 58 59 0 88-139 92-164 29-3-8-5-16-6-25l32-3c6 27 21 44 54 44 32 0 52-15 52-46 0-38-36-46-79-43v-28c39 1 72-4 72-42 0-27-17-43-46-43-28 0-47 15-49 41l-32-3c6-42 35-63 81-64 48-1 79 21 79 65 0 36-21 52-52 59" id="A"/><g id="c"><use transform="matrix(0.049382716049382706,0,0,0.049382716049382706,0,0)" xlink:href="#z"/><use transform="matrix(0.03456790123456789,0,0,0.03456790123456789,9.87654320987654,2.488888888888888)" xlink:href="#A"/></g><path fill="#3a414a" d="M155-56V0h-30v-56H8v-25l114-167h33v167h35v25h-35zm-30-156c-27 46-58 90-88 131h88v-131" id="B"/><g id="d"><use transform="matrix(0.049382716049382706,0,0,0.049382716049382706,0,0)" xlink:href="#z"/><use transform="matrix(0.03456790123456789,0,0,0.03456790123456789,9.87654320987654,2.488888888888888)" xlink:href="#B"/></g><path fill="#3a414a" d="M54-142c48-35 137-8 131 61C196 18 31 33 14-55l32-4c7 23 22 37 52 37 35-1 51-22 54-58 4-55-73-65-99-34H22l8-134h141v27H59" id="C"/><g id="e"><use transform="matrix(0.049382716049382706,0,0,0.049382716049382706,0,0)" xlink:href="#z"/><use transform="matrix(0.03456790123456789,0,0,0.03456790123456789,9.87654320987654,2.488888888888888)" xlink:href="#C"/></g><path fill="#3a414a" d="M110-160c48 1 74 30 74 79 0 53-28 85-80 85-65 0-83-55-86-122-5-90 50-162 133-122 14 7 22 21 27 39l-31 6c-5-40-67-38-82-6-9 19-15 44-15 74 11-20 30-34 60-33zm-7 138c34 0 49-23 49-58s-16-56-50-56c-29 0-50 16-49 49 1 36 15 65 50 65" id="D"/><g id="f"><use transform="matrix(0.049382716049382706,0,0,0.049382716049382706,0,0)" xlink:href="#z"/><use transform="matrix(0.03456790123456789,0,0,0.03456790123456789,9.87654320987654,2.488888888888888)" xlink:href="#D"/></g><path fill="#3a414a" d="M64 0c3-98 48-159 88-221H18v-27h164v26C143-157 98-101 97 0H64" id="E"/><g id="g"><use transform="matrix(0.049382716049382706,0,0,0.049382716049382706,0,0)" xlink:href="#z"/><use transform="matrix(0.03456790123456789,0,0,0.03456790123456789,9.87654320987654,2.488888888888888)" xlink:href="#E"/></g><path fill="#3a414a" d="M179-190L93 31C79 59 56 82 12 73V49c39 6 53-20 64-50L1-190h34L92-34l54-156h33" id="F"/><use transform="matrix(0.049382716049382706,0,0,0.049382716049382706,0,0)" xlink:href="#F" id="h"/><path fill="#3a414a" d="M206 0h-36l-40-164L89 0H53L-1-190h32L70-26l43-164h34l41 164 42-164h31" id="G"/><path fill="#3a414a" d="M68-38c1 34 0 65-14 84H32c9-13 17-26 17-46H33v-38h35" id="H"/><g id="i"><use transform="matrix(0.04320987654320986,0,0,0.04320987654320986,0,0)" xlink:href="#G"/><use transform="matrix(0.0302469135802469,0,0,0.0302469135802469,11.191358024691354,2.1777777777777767)" xlink:href="#x"/><use transform="matrix(0.0302469135802469,0,0,0.0302469135802469,17.240740740740733,2.1777777777777767)" xlink:href="#H"/><use transform="matrix(0.0302469135802469,0,0,0.0302469135802469,20.265432098765423,2.1777777777777767)" xlink:href="#A"/></g><g id="j"><use transform="matrix(0.04320987654320986,0,0,0.04320987654320986,0,0)" xlink:href="#G"/><use transform="matrix(0.0302469135802469,0,0,0.0302469135802469,11.191358024691354,2.1777777777777767)" xlink:href="#x"/><use transform="matrix(0.0302469135802469,0,0,0.0302469135802469,17.240740740740733,2.1777777777777767)" xlink:href="#H"/><use transform="matrix(0.0302469135802469,0,0,0.0302469135802469,20.265432098765423,2.1777777777777767)" xlink:href="#B"/></g><g id="k"><use transform="matrix(0.04320987654320986,0,0,0.04320987654320986,0,0)" xlink:href="#G"/><use transform="matrix(0.0302469135802469,0,0,0.0302469135802469,11.191358024691354,2.1777777777777767)" xlink:href="#x"/><use transform="matrix(0.0302469135802469,0,0,0.0302469135802469,17.240740740740733,2.1777777777777767)" xlink:href="#H"/><use transform="matrix(0.0302469135802469,0,0,0.0302469135802469,20.265432098765423,2.1777777777777767)" xlink:href="#C"/></g><g id="l"><use transform="matrix(0.04320987654320986,0,0,0.04320987654320986,0,0)" xlink:href="#G"/><use transform="matrix(0.0302469135802469,0,0,0.0302469135802469,11.191358024691354,2.1777777777777767)" xlink:href="#y"/><use transform="matrix(0.0302469135802469,0,0,0.0302469135802469,17.240740740740733,2.1777777777777767)" xlink:href="#H"/><use transform="matrix(0.0302469135802469,0,0,0.0302469135802469,20.265432098765423,2.1777777777777767)" xlink:href="#A"/></g><g id="m"><use transform="matrix(0.04320987654320986,0,0,0.04320987654320986,0,0)" xlink:href="#G"/><use transform="matrix(0.0302469135802469,0,0,0.0302469135802469,11.191358024691354,2.1777777777777767)" xlink:href="#y"/><use transform="matrix(0.0302469135802469,0,0,0.0302469135802469,17.240740740740733,2.1777777777777767)" xlink:href="#H"/><use transform="matrix(0.0302469135802469,0,0,0.0302469135802469,20.265432098765423,2.1777777777777767)" xlink:href="#B"/></g><g id="n"><use transform="matrix(0.04320987654320986,0,0,0.04320987654320986,0,0)" xlink:href="#G"/><use transform="matrix(0.0302469135802469,0,0,0.0302469135802469,11.191358024691354,2.1777777777777767)" xlink:href="#y"/><use transform="matrix(0.0302469135802469,0,0,0.0302469135802469,17.240740740740733,2.1777777777777767)" xlink:href="#H"/><use transform="matrix(0.0302469135802469,0,0,0.0302469135802469,20.265432098765423,2.1777777777777767)" xlink:href="#C"/></g><g id="o"><use transform="matrix(0.04320987654320986,0,0,0.04320987654320986,0,0)" xlink:href="#G"/><use transform="matrix(0.0302469135802469,0,0,0.0302469135802469,11.191358024691354,2.1777777777777767)" xlink:href="#C"/><use transform="matrix(0.0302469135802469,0,0,0.0302469135802469,17.240740740740733,2.1777777777777767)" xlink:href="#H"/><use transform="matrix(0.0302469135802469,0,0,0.0302469135802469,20.265432098765423,2.1777777777777767)" xlink:href="#E"/></g><g id="p"><use transform="matrix(0.04320987654320986,0,0,0.04320987654320986,0,0)" xlink:href="#G"/><use transform="matrix(0.0302469135802469,0,0,0.0302469135802469,11.191358024691354,2.1777777777777767)" xlink:href="#C"/><use transform="matrix(0.0302469135802469,0,0,0.0302469135802469,17.240740740740733,2.1777777777777767)" xlink:href="#H"/><use transform="matrix(0.0302469135802469,0,0,0.0302469135802469,20.265432098765423,2.1777777777777767)" xlink:href="#D"/></g><g id="q"><use transform="matrix(0.04320987654320986,0,0,0.04320987654320986,0,0)" xlink:href="#G"/><use transform="matrix(0.0302469135802469,0,0,0.0302469135802469,11.191358024691354,2.1777777777777767)" xlink:href="#B"/><use transform="matrix(0.0302469135802469,0,0,0.0302469135802469,17.240740740740733,2.1777777777777767)" xlink:href="#H"/><use transform="matrix(0.0302469135802469,0,0,0.0302469135802469,20.265432098765423,2.1777777777777767)" xlink:href="#E"/></g><g id="r"><use transform="matrix(0.04320987654320986,0,0,0.04320987654320986,0,0)" xlink:href="#G"/><use transform="matrix(0.0302469135802469,0,0,0.0302469135802469,11.191358024691354,2.1777777777777767)" xlink:href="#B"/><use transform="matrix(0.0302469135802469,0,0,0.0302469135802469,17.240740740740733,2.1777777777777767)" xlink:href="#H"/><use transform="matrix(0.0302469135802469,0,0,0.0302469135802469,20.265432098765423,2.1777777777777767)" xlink:href="#D"/></g><g id="s"><use transform="matrix(0.04320987654320986,0,0,0.04320987654320986,0,0)" xlink:href="#G"/><use transform="matrix(0.0302469135802469,0,0,0.0302469135802469,11.191358024691354,2.1777777777777767)" xlink:href="#A"/><use transform="matrix(0.0302469135802469,0,0,0.0302469135802469,17.240740740740733,2.1777777777777767)" xlink:href="#H"/><use transform="matrix(0.0302469135802469,0,0,0.0302469135802469,20.265432098765423,2.1777777777777767)" xlink:href="#D"/></g><g id="t"><use transform="matrix(0.04320987654320986,0,0,0.04320987654320986,0,0)" xlink:href="#G"/><use transform="matrix(0.0302469135802469,0,0,0.0302469135802469,11.191358024691354,2.1777777777777767)" xlink:href="#A"/><use transform="matrix(0.0302469135802469,0,0,0.0302469135802469,17.240740740740733,2.1777777777777767)" xlink:href="#H"/><use transform="matrix(0.0302469135802469,0,0,0.0302469135802469,20.265432098765423,2.1777777777777767)" xlink:href="#E"/></g><path fill="#3a414a" d="M134-131c28 9 52 24 51 62-1 50-34 73-85 73S17-19 16-69c0-36 21-54 49-61-75-25-45-126 34-121 46 3 78 18 79 63 0 33-17 51-44 57zm-34-11c31 1 46-15 46-44 0-28-17-43-47-42-29 0-46 13-45 42 1 28 16 44 46 44zm1 122c35 0 51-18 51-52 0-30-18-46-53-46-33 0-51 17-51 47 0 34 19 51 53 51" id="I"/><g id="u"><use transform="matrix(0.04320987654320986,0,0,0.04320987654320986,0,0)" xlink:href="#G"/><use transform="matrix(0.0302469135802469,0,0,0.0302469135802469,11.191358024691354,2.1777777777777767)" xlink:href="#D"/><use transform="matrix(0.0302469135802469,0,0,0.0302469135802469,17.240740740740733,2.1777777777777767)" xlink:href="#H"/><use transform="matrix(0.0302469135802469,0,0,0.0302469135802469,20.265432098765423,2.1777777777777767)" xlink:href="#I"/></g><g id="v"><use transform="matrix(0.04320987654320986,0,0,0.04320987654320986,0,0)" xlink:href="#G"/><use transform="matrix(0.0302469135802469,0,0,0.0302469135802469,11.191358024691354,2.1777777777777767)" xlink:href="#E"/><use transform="matrix(0.0302469135802469,0,0,0.0302469135802469,17.240740740740733,2.1777777777777767)" xlink:href="#H"/><use transform="matrix(0.0302469135802469,0,0,0.0302469135802469,20.265432098765423,2.1777777777777767)" xlink:href="#I"/></g></defs></g></svg>