<svg xmlns="http://www.w3.org/2000/svg" xmlns:xlink="http://www.w3.org/1999/xlink" xmlns:lucid="lucid" width="620.68" height="690.15"><g transform="translate(72 2.5)" lucid:page-tab-id="0_0"><path d="M-500 0h1500v1000H-500z" fill="#fff"/><path d="M0 26a6 6 0 0 1 6-6h68a6 6 0 0 1 6 6v68a6 6 0 0 1-6 6H6a6 6 0 0 1-6-6z" stroke="#3a414a" fill="#fff"/><use xlink:href="#a" transform="matrix(1,0,0,1,12,32) translate(22.997829861111114 33.42274305555555)"/><path d="M84.13 26a6 6 0 0 1 6-6h68a6 6 0 0 1 6 6v68a6 6 0 0 1-6 6h-68a6 6 0 0 1-6-6z" stroke="#3a414a" fill="#fff"/><use xlink:href="#b" transform="matrix(1,0,0,1,96.13402198596788,32) translate(22.813368055555557 33.42274305555555)"/><path d="M168 26a6 6 0 0 1 6-6h68a6 6 0 0 1 6 6v68a6 6 0 0 1-6 6h-68a6 6 0 0 1-6-6z" stroke="#3a414a" fill="#fff"/><use xlink:href="#c" transform="matrix(1,0,0,1,180,32) translate(23.686848958333336 33.42274305555555)"/><path d="M0 111a6 6 0 0 1 6-6h68a6 6 0 0 1 6 6v68a6 6 0 0 1-6 6H6a6 6 0 0 1-6-6z" stroke="#3a414a" fill="#fff"/><use xlink:href="#d" transform="matrix(1,0,0,1,11.999999999999986,117) translate(23.63259548611111 33.42274305555555)"/><path d="M84.13 111a6 6 0 0 1 6-6h68a6 6 0 0 1 6 6v68a6 6 0 0 1-6 6h-68a6 6 0 0 1-6-6z" stroke="#3a414a" fill="#fff"/><use xlink:href="#e" transform="matrix(1,0,0,1,96.13402198596788,117) translate(24.96723090277778 33.42274305555555)"/><path d="M168 111a6 6 0 0 1 6-6h68a6 6 0 0 1 6 6v68a6 6 0 0 1-6 6h-68a6 6 0 0 1-6-6z" stroke="#3a414a" fill="#fff"/><use xlink:href="#f" transform="matrix(1,0,0,1,180,117) translate(23.057508680555557 33.42274305555555)"/><path d="M251 26a6 6 0 0 1 6-6h68a6 6 0 0 1 6 6v68a6 6 0 0 1-6 6h-68a6 6 0 0 1-6-6z" stroke="#3a414a" fill="#fff"/><use xlink:href="#g" transform="matrix(1,0,0,1,263,32) translate(22.742838541666668 33.42274305555555)"/><path d="M251 111a6 6 0 0 1 6-6h68a6 6 0 0 1 6 6v68a6 6 0 0 1-6 6h-68a6 6 0 0 1-6-6z" stroke="#3a414a" fill="#fff"/><use xlink:href="#h" transform="matrix(1,0,0,1,263,117) translate(22.509548611111114 33.42274305555555)"/><path d="M0 196a6 6 0 0 1 6-6h68a6 6 0 0 1 6 6v68a6 6 0 0 1-6 6H6a6 6 0 0 1-6-6z" stroke="#3a414a" fill="#fff"/><use xlink:href="#i" transform="matrix(1,0,0,1,11.999999999999986,202) translate(25.265625 33.42274305555555)"/><path d="M84.13 196a6 6 0 0 1 6-6h68a6 6 0 0 1 6 6v68a6 6 0 0 1-6 6h-68a6 6 0 0 1-6-6z" stroke="#3a414a" fill="#fff"/><use xlink:href="#j" transform="matrix(1,0,0,1,96.13402198596788,202) translate(25.276475694444446 33.42274305555555)"/><path d="M168 196a6 6 0 0 1 6-6h68a6 6 0 0 1 6 6v68a6 6 0 0 1-6 6h-68a6 6 0 0 1-6-6z" stroke="#3a414a" fill="#fff"/><use xlink:href="#k" transform="matrix(1,0,0,1,180,202) translate(23.12261284722222 33.42274305555555)"/><path d="M251 196a6 6 0 0 1 6-6h68a6 6 0 0 1 6 6v68a6 6 0 0 1-6 6h-68a6 6 0 0 1-6-6z" stroke="#3a414a" fill="#fff"/><use xlink:href="#l" transform="matrix(1,0,0,1,263,202) translate(25.39040798611111 33.42274305555555)"/><path d="M362.34 87.75a6 6 0 0 1 6-6h68a6 6 0 0 1 6 6v68a6 6 0 0 1-6 6h-68a6 6 0 0 1-6-6z" stroke="#3a414a" fill="#fff"/><use xlink:href="#m" transform="matrix(1,0,0,1,374.3409090909089,93.75000000000009) translate(21.001302083333336 33.42274305555555)"/><path d="M362.34 172.75a6 6 0 0 1 6-6h68a6 6 0 0 1 6 6v68a6 6 0 0 1-6 6h-68a6 6 0 0 1-6-6z" stroke="#3a414a" fill="#fff"/><use xlink:href="#n" transform="matrix(1,0,0,1,374.3409090909089,178.75000000000009) translate(22.97612847222222 33.42274305555555)"/><path d="M445.34 87.75a6 6 0 0 1 6-6h68a6 6 0 0 1 6 6v68a6 6 0 0 1-6 6h-68a6 6 0 0 1-6-6z" stroke="#3a414a" fill="#fff"/><use xlink:href="#o" transform="matrix(1,0,0,1,457.3409090909089,93.75000000000009) translate(23.11176215277778 33.42274305555555)"/><path d="M445.34 172.75a6 6 0 0 1 6-6h68a6 6 0 0 1 6 6v68a6 6 0 0 1-6 6h-68a6 6 0 0 1-6-6z" stroke="#3a414a" fill="#fff"/><use xlink:href="#p" transform="matrix(1,0,0,1,457.3409090909089,178.75000000000009) translate(23.789930555555557 33.42274305555555)"/><path d="M-5.93 328.15a6 6 0 0 1 6-6H152.2a6 6 0 0 1 6 6v153a6 6 0 0 1-6 6H.08a6 6 0 0 1-6-6z" stroke="#3a414a" fill="#fff"/><use xlink:href="#q" transform="matrix(1,0,0,1,6.072865118973198,334.1483911712756) translate(0 60.41944444444444)"/><use xlink:href="#r" transform="matrix(1,0,0,1,6.072865118973198,334.1483911712756) translate(29.37777777777777 60.41944444444444)"/><use xlink:href="#s" transform="matrix(1,0,0,1,6.072865118973198,334.1483911712756) translate(46.64444444444443 60.41944444444444)"/><use xlink:href="#t" transform="matrix(1,0,0,1,6.072865118973198,334.1483911712756) translate(73.19999999999999 60.41944444444444)"/><use xlink:href="#u" transform="matrix(1,0,0,1,6.072865118973198,334.1483911712756) translate(90.46666666666665 60.41944444444444)"/><use xlink:href="#v" transform="matrix(1,0,0,1,6.072865118973198,334.1483911712756) translate(114.26666666666665 60.41944444444444)"/><use xlink:href="#w" transform="matrix(1,0,0,1,6.072865118973198,334.1483911712756) translate(0 87.0861111111111)"/><path d="M177.07 328.15a6 6 0 0 1 6-6H335.2a6 6 0 0 1 6 6v153a6 6 0 0 1-6 6H183.08a6 6 0 0 1-6-6z" stroke="#3a414a" fill="#fff"/><use xlink:href="#x" transform="matrix(1,0,0,1,189.07286511897323,334.14839117127553) translate(0 60.41944444444444)"/><use xlink:href="#r" transform="matrix(1,0,0,1,189.07286511897323,334.14839117127553) translate(29.46666666666666 60.41944444444444)"/><use xlink:href="#y" transform="matrix(1,0,0,1,189.07286511897323,334.14839117127553) translate(46.73333333333333 60.41944444444444)"/><use xlink:href="#t" transform="matrix(1,0,0,1,189.07286511897323,334.14839117127553) translate(70.55555555555554 60.41944444444444)"/><use xlink:href="#z" transform="matrix(1,0,0,1,189.07286511897323,334.14839117127553) translate(87.82222222222221 60.41944444444444)"/><use xlink:href="#v" transform="matrix(1,0,0,1,189.07286511897323,334.14839117127553) translate(109.26666666666665 60.41944444444444)"/><use xlink:href="#A" transform="matrix(1,0,0,1,189.07286511897323,334.14839117127553) translate(0 87.0861111111111)"/><path d="M361.2 328.15a6 6 0 0 1 6-6h152.14a6 6 0 0 1 6 6v153a6 6 0 0 1-6 6H367.2a6 6 0 0 1-6-6z" stroke="#3a414a" fill="#fff"/><use xlink:href="#B" transform="matrix(1,0,0,1,373.20688710494096,334.1483911712756) translate(0 60.41944444444444)"/><use xlink:href="#r" transform="matrix(1,0,0,1,373.20688710494096,334.1483911712756) translate(26.73333333333333 60.41944444444444)"/><use xlink:href="#C" transform="matrix(1,0,0,1,373.20688710494096,334.1483911712756) translate(44 60.41944444444444)"/><use xlink:href="#t" transform="matrix(1,0,0,1,373.20688710494096,334.1483911712756) translate(70.57777777777777 60.41944444444444)"/><use xlink:href="#D" transform="matrix(1,0,0,1,373.20688710494096,334.1483911712756) translate(87.84444444444443 60.41944444444444)"/><use xlink:href="#v" transform="matrix(1,0,0,1,373.20688710494096,334.1483911712756) translate(112.48888888888888 60.41944444444444)"/><use xlink:href="#E" transform="matrix(1,0,0,1,373.20688710494096,334.1483911712756) translate(0 87.0861111111111)"/><path d="M-5.93 508.15a6 6 0 0 1 6-6H152.2a6 6 0 0 1 6 6v153a6 6 0 0 1-6 6H.08a6 6 0 0 1-6-6z" stroke="#3a414a" fill="#fff"/><g><use xlink:href="#F" transform="matrix(1,0,0,1,6.072865118973141,514.1483911712755) translate(0 60.41944444444444)"/><use xlink:href="#r" transform="matrix(1,0,0,1,6.072865118973141,514.1483911712755) translate(27.955555555555552 60.41944444444444)"/><use xlink:href="#G" transform="matrix(1,0,0,1,6.072865118973141,514.1483911712755) translate(45.222222222222214 60.41944444444444)"/><use xlink:href="#t" transform="matrix(1,0,0,1,6.072865118973141,514.1483911712755) translate(67.9111111111111 60.41944444444444)"/><use xlink:href="#H" transform="matrix(1,0,0,1,6.072865118973141,514.1483911712755) translate(85.17777777777776 60.41944444444444)"/><use xlink:href="#v" transform="matrix(1,0,0,1,6.072865118973141,514.1483911712755) translate(106.93333333333331 60.41944444444444)"/><use xlink:href="#I" transform="matrix(1,0,0,1,6.072865118973141,514.1483911712755) translate(0 87.0861111111111)"/></g><path d="M177.07 508.15a6 6 0 0 1 6-6H335.2a6 6 0 0 1 6 6v153a6 6 0 0 1-6 6H183.08a6 6 0 0 1-6-6z" stroke="#3a414a" fill="#fff"/><g><use xlink:href="#J" transform="matrix(1,0,0,1,189.07286511897323,514.1483911712755) translate(0 60.41944444444444)"/><use xlink:href="#r" transform="matrix(1,0,0,1,189.07286511897323,514.1483911712755) translate(25.35555555555555 60.41944444444444)"/><use xlink:href="#K" transform="matrix(1,0,0,1,189.07286511897323,514.1483911712755) translate(42.62222222222222 60.41944444444444)"/><use xlink:href="#t" transform="matrix(1,0,0,1,189.07286511897323,514.1483911712755) translate(68.5111111111111 60.41944444444444)"/><use xlink:href="#L" transform="matrix(1,0,0,1,189.07286511897323,514.1483911712755) translate(85.77777777777777 60.41944444444444)"/><use xlink:href="#v" transform="matrix(1,0,0,1,189.07286511897323,514.1483911712755) translate(107.3111111111111 60.41944444444444)"/><use xlink:href="#M" transform="matrix(1,0,0,1,189.07286511897323,514.1483911712755) translate(0 87.0861111111111)"/></g><path d="M361.2 508.15a6 6 0 0 1 6-6h152.14a6 6 0 0 1 6 6v153a6 6 0 0 1-6 6H367.2a6 6 0 0 1-6-6z" stroke="#3a414a" fill="#fff"/><g><use xlink:href="#N" transform="matrix(1,0,0,1,373.20688710494096,514.1483911712755) translate(0 60.41944444444444)"/><use xlink:href="#r" transform="matrix(1,0,0,1,373.20688710494096,514.1483911712755) translate(28.688888888888886 60.41944444444444)"/><use xlink:href="#O" transform="matrix(1,0,0,1,373.20688710494096,514.1483911712755) translate(45.95555555555555 60.41944444444444)"/><use xlink:href="#t" transform="matrix(1,0,0,1,373.20688710494096,514.1483911712755) translate(73.93333333333332 60.41944444444444)"/><use xlink:href="#P" transform="matrix(1,0,0,1,373.20688710494096,514.1483911712755) translate(91.19999999999999 60.41944444444444)"/><use xlink:href="#v" transform="matrix(1,0,0,1,373.20688710494096,514.1483911712755) translate(117.88888888888887 60.41944444444444)"/><use xlink:href="#Q" transform="matrix(1,0,0,1,373.20688710494096,514.1483911712755) translate(0 87.0861111111111)"/></g><path d="M-3.1 24a6 6 0 0 1 6-6h157.14a6 6 0 0 1 6 6v156.5a6 6 0 0 1-6 6H2.9a6 6 0 0 1-6-6zM360 86a6 6 0 0 1 6-6h156.18a6 6 0 0 1 6 6v157.5a6 6 0 0 1-6 6H366a6 6 0 0 1-6-6zM-8.3 326a6 6 0 0 1 6-6h157.27a6 6 0 0 1 6 6v157.32a6 6 0 0 1-6 6H-2.3a6 6 0 0 1-6-6z" stroke="#3a414a" fill-opacity="0"/><path d="M-4.1 102.25H-64a6 6 0 0 0-6 6v290.4a6 6 0 0 0 6 6h50.7" stroke="#3a414a" fill="none"/><path d="M-3.6 102.75h-.5v-1h.5z" stroke="#3a414a" stroke-width=".05" fill="#3a414a"/><path d="M-7.4 404.65l-12.92 7.63V397z" stroke="#3a414a" fill="#3a414a"/><path d="M444.1 250.5v28.25a6 6 0 0 1-6 6H82.32a6 6 0 0 0-6 6v21.88" stroke="#3a414a" fill="none"/><path d="M444.6 250.5h-1v-.5h1z" stroke="#3a414a" stroke-width=".05" fill="#3a414a"/><path d="M76.33 318.52l-7.63-12.9h15.27z" stroke="#3a414a" fill="#3a414a"/><defs><path fill="#3a414a" d="M661-760c-53-49-159-101-247-48-113 67-182 195-214 341-30 137-2 291 76 351 83 63 145-40 186-90 52-62 103-149 141-225 17-109 40-224 58-329zM774-76c46 0 73-10 115-28l12 36C815-15 765 25 678 41c-67-11-72-79-84-155-6-40-8-93-8-158C527-170 447-59 354 10c-84 62-182 13-228-48-67-88-94-277-54-422 66-239 224-400 465-468 89-26 161 15 213 52 30-23 66-43 102-60l20 35c-81 49-83 182-104 289-30 154-64 328-30 492 5 25 13 44 36 44" id="R"/><use transform="matrix(0.010850694444444442,0,0,0.010850694444444442,0,0)" xlink:href="#R" id="a"/><path fill="#3a414a" d="M696-736c-26-48-83-93-147-42-97 77-189 186-251 306-11 73-22 147-22 216 0 75 61 124 116 154 239 57 344-179 349-428 2-84-17-155-45-206zm-313-784c70 2 50 95 44 164-23 245-72 490-107 729 78-130 167-242 306-293 263-96 297 291 228 524C798-208 667-41 481 22c-51 17-114 31-165 8C235-6 170-72 135-156c-8-21-12-41-12-61 0-382 122-745 149-1129 3-42-13-69-53-67-36 2-67 17-100 27l-13-39c85-36 179-77 277-95" id="S"/><use transform="matrix(0.010850694444444442,0,0,0.010850694444444442,0,0)" xlink:href="#S" id="b"/><path fill="#3a414a" d="M686-221c9 13 23 29 31 41C607-84 522-3 374 33 214 72 121-24 78-147c-48-136-20-342 34-453 79-162 215-279 412-328 118-29 197 32 254 88 14 13 25 22 35 25-50 33-97 80-164 94-57-29-87-110-172-110-153 0-206 143-247 267-61 185-47 488 165 488 129 0 203-79 291-145" id="T"/><use transform="matrix(0.010850694444444442,0,0,0.010850694444444442,0,0)" xlink:href="#T" id="c"/><path fill="#3a414a" d="M579-646c37-99-17-228-128-174-115 56-180 180-224 308-12 36-18 73-21 108 139-55 237-96 323-171 27-24 42-49 50-71zm-61-283c157-36 268 72 226 228-42 154-187 215-329 287-57 29-127 57-208 87 12 102 51 186 115 233 18 12 37 18 55 18 144 0 224-74 319-145 13 5 26 29 31 41C613-85 528-4 380 33 225 72 123-22 88-142c-97-333 92-609 306-738 36-22 78-39 124-49" id="U"/><use transform="matrix(0.010850694444444442,0,0,0.010850694444444442,0,0)" xlink:href="#U" id="d"/><path fill="#3a414a" d="M526-770c-19-49-90-43-159-45l-72 622C254 110 134 350-74 485l-26-63C53 318 115 88 141-139l78-676H68l-15-31 101-59h75c24-228 81-415 230-522 71-51 177-125 295-77 59 24 99 73 149 101-51 33-100 82-166 98-54-24-64-112-141-112-130 0-153 152-183 269-20 77-25 163-36 243h256l20 28c-32 41-82 79-127 107" id="V"/><use transform="matrix(0.010850694444444442,0,0,0.010850694444444442,0,0)" xlink:href="#V" id="e"/><path fill="#3a414a" d="M674-748c-47-35-92-83-172-83-157 0-216 146-272 265-64 135-51 381 51 450 45 31 72 28 114-14 96-95 179-235 237-374 10-83 14-176 42-244zM538-928c95-27 164 21 218 59 29-28 63-48 100-67l23 35c-51 44-69 93-82 182-45 313-7 671-127 913-56 113-141 206-246 266-130 75-313 23-402-42-18-14-27-27-27-39C6 323 51 279 95 256c41 25 63 74 110 98 37 19 83 36 142 35 65 0 116-29 154-87 89-134 113-411 119-638C554-210 466-78 359 6c-85 67-183 19-233-44-69-87-94-276-57-422 57-221 202-364 401-447 23-9 46-15 68-21" id="W"/><use transform="matrix(0.010850694444444442,0,0,0.010850694444444442,0,0)" xlink:href="#W" id="f"/><path fill="#3a414a" d="M668-722c-47-47-91-109-179-109-154 0-210 145-262 265-62 143-43 381 62 450 83 55 145-25 185-74 54-66 104-151 147-234 14-93 31-199 47-298zM795-78c47-1 77-9 116-26l13 36C838-14 788 27 696 41c-67-13-69-91-81-168-6-41-7-93-7-154C545-167 470-54 364 14c-91 58-187 3-234-58-69-89-97-274-60-424 60-241 222-390 457-460 75-22 127 9 168 45 23-151 53-304 59-463 2-40-7-70-45-67s-72 18-107 27l-12-39c84-35 172-77 268-95 45 2 55 29 55 82 0 397-163 746-163 1139 0 77 4 134 11 169s19 52 34 52" id="X"/><use transform="matrix(0.010850694444444442,0,0,0.010850694444444442,0,0)" xlink:href="#X" id="g"/><path fill="#3a414a" d="M793-135c-6 100 112 46 161 26l15 37C872-21 815 28 713 41c-47-3-79-59-74-117 17-205 86-416 86-624 0-70 2-136-70-134-130 42-229 138-293 252-71 126-89 326-102 510 0 17 1 33 2 47-44 22-100 43-143 66L86 10c68-407 139-834 188-1260 4-42 7-75 7-96-1-38-5-69-41-67-40 3-78 17-115 27l-12-39c84-36 173-77 270-95 74 4 61 83 53 162-26 224-64 465-98 680 90-110 186-200 330-244 33-10 64-14 94-14 100 0 117 63 117 176 0 217-73 413-86 625" id="Y"/><use transform="matrix(0.010850694444444442,0,0,0.010850694444444442,0,0)" xlink:href="#Y" id="h"/><path fill="#3a414a" d="M311-76c55 0 81-15 129-33l15 37C371-28 309 41 199 41c-53 0-78-56-74-117 14-232 100-454 100-684 0-38-3-70-41-67-36 2-67 15-100 24l-14-37c83-35 168-78 264-96 45 2 51 31 51 84 0 243-104 474-104 717 0 34 2 59 30 59zm106-1257c42-3 67 28 65 71-4 84-41 151-123 156-42 3-68-26-65-70 5-82 42-152 123-157" id="Z"/><use transform="matrix(0.010850694444444442,0,0,0.010850694444444442,0,0)" xlink:href="#Z" id="i"/><path fill="#3a414a" d="M319-936c83-12 56 102 47 169-54 403-32 897-268 1123-77 74-163 144-306 144-63 0-121-27-159-53-43-29 11-74 27-97 22-18 54-69 85-36 34 36 82 70 156 69 57 0 105-33 140-103C163 36 175-398 210-726c5-48 8-104-40-101-36 2-67 15-100 24l-15-37c83-35 168-83 264-96zm73-397c42-3 68 28 66 71-4 84-43 156-125 156-43 0-64-23-64-70 0-83 41-152 123-157" id="aa"/><use transform="matrix(0.010850694444444442,0,0,0.010850694444444442,0,0)" xlink:href="#aa" id="j"/><path fill="#3a414a" d="M381-1520c56-7 59 46 59 103 0 319-86 611-127 910 104-80 231-172 328-252 29-25 49-44 57-59s4-26-12-32-45-9-90-8l-4-39c78-8 144-35 231-33 59 1 74 9 76 62-12 43-46 71-85 106-97 88-230 167-351 239 98 122 154 303 253 423 14 17 29 24 42 24 50-1 73-3 114-26l17 34C820-13 774 29 686 39c-67-7-102-68-136-121-67-105-119-244-182-350-19-32-37-55-55-69-19 135-42 269-48 409-1 30 1 51 5 65-46 23-104 45-149 68L86 10c60-405 140-825 188-1243 5-48 7-85 7-110 0-43-4-75-48-70-38 4-72 18-108 27l-14-39c84-36 173-82 270-95" id="ab"/><use transform="matrix(0.010850694444444442,0,0,0.010850694444444442,0,0)" xlink:href="#ab" id="k"/><path fill="#3a414a" d="M295-76c50 0 81-16 129-33l12 37C351-24 291 41 174 41c-49 0-78-56-72-119 38-425 141-836 172-1268 3-41-11-70-51-67-37 3-69 18-104 27l-15-39c84-35 172-77 269-95 45 2 64 29 61 82-29 447-174 858-174 1303 0 37 6 59 35 59" id="ac"/><use transform="matrix(0.010850694444444442,0,0,0.010850694444444442,0,0)" xlink:href="#ac" id="l"/><path fill="#3a414a" d="M1194-936c119-13 85 137 60 222-78 260-198 476-322 712-28 15-63 29-92 43l-33-31c-31-236-60-485-111-700-43 204-132 385-214 556-21 45-45 86-68 124-31 16-66 37-99 51l-32-31c-33-247-45-525-95-755-10-44-22-82-71-82-36 0-66 15-99 24L4-840c80-33 151-78 240-96 19 0 34 10 42 32 69 202 83 495 111 738 100-206 213-430 246-698 36-29 74-62 127-72 71 197 92 450 132 677 7 40 10 77 13 112 101-191 187-343 233-559 14-65 28-138-46-138-26 1-53 8-76 15l-18-37c56-32 114-62 186-70" id="ad"/><use transform="matrix(0.010850694444444442,0,0,0.010850694444444442,0,0)" xlink:href="#ad" id="m"/><path fill="#3a414a" d="M811-936c96-8 94 88 63 164-94 239-205 440-333 690-110 215-221 423-416 540-83 51-219 61-295 8-32-22 9-71 22-96 13-26 38-56 61-69 41 27 76 43 143 43 54 0 106-26 158-78S320 139 376 44c-51-272-106-558-200-789-21-51-28-72-72-82-36 3-66 15-98 24l-12-37c79-33 150-77 237-96 60 11 66 74 86 127 71 194 127 423 172 644 92-183 187-372 258-573 19-53 17-103-42-106-21-2-52 6-91 23l-18-37c73-42 131-71 215-78" id="ae"/><use transform="matrix(0.010850694444444442,0,0,0.010850694444444442,0,0)" xlink:href="#ae" id="n"/><path fill="#3a414a" d="M691-106c42 57 116 19 169-3l17 37C803-26 752 29 653 41c-60-9-91-63-121-115-44-75-82-174-116-264-84 112-177 227-256 348C110 17 39 27-6 41L-29 6c144-129 285-286 411-435-50-126-98-265-166-365-43-63-113-14-175-7l-14-39c80-31 153-76 239-96 57 11 83 70 112 124 44 81 82 186 119 279 76-94 162-198 216-305 0-46-52-34-97-32l-2-41c65-14 130-22 193-25 81-4 107 50 63 108-101 131-219 250-339 384 48 118 93 247 160 338" id="af"/><use transform="matrix(0.010850694444444442,0,0,0.010850694444444442,0,0)" xlink:href="#af" id="o"/><path fill="#3a414a" d="M170-936c30 7 55 21 98 21h488l20 30C565-660 422-395 229-150c15-7 54-19 82-16 96 10 180 62 287 62 70 0 89-57 121-109l35 20C700-86 681 20 522 20c-126 0-203-58-317-67C127-38 84 3 18 31L-4-2c204-247 377-541 573-793H268c-89-2-95 64-123 129l-39-8c19-98 47-179 64-262" id="ag"/><use transform="matrix(0.010850694444444442,0,0,0.010850694444444442,0,0)" xlink:href="#ag" id="p"/><path fill="#3a414a" d="M14-97c0-149 180-355 370-339-23 121-72 249-72 371 0 10 4 16 10 16 9 0 31-20 61-56v26c-59 67-89 92-112 92-17 0-29-20-29-49 0-19 5-56 15-101C156-32 102 13 75 13 43 13 14-40 14-97zm293-286C154-380 80-261 80-120c0 43 15 79 34 79 18 0 59-35 150-128" id="ah"/><path fill="#3a414a" d="M594-346c7-18-23-28-24-46 0-22 25-45 48-45 25 0 44 26 44 60 0 77-67 181-197 307-54 52-100 83-126 83-42 0-28-63-22-110l17-110c-31 46-82 107-126 151-42 42-83 68-109 68-49 0-32-77-26-126 9-76 25-159 33-236 0-8-3-12-8-12-10 0-23 13-63 63l-14-11c62-83 111-128 137-128 11 0 19 13 19 32 0 120-37 235-47 356 0 10 5 16 13 16 27 0 126-107 199-216l21-146c5-36 10-41 37-41 40 0 28 27 25 52-14 112-50 218-50 333 0 13 4 19 12 19 9 0 29-14 57-41 75-73 135-161 150-272" id="ai"/><g id="q"><use transform="matrix(0.02222222222222222,0,0,0.02222222222222222,0,0)" xlink:href="#ah"/><use transform="matrix(0.02222222222222222,0,0,0.02222222222222222,9.244444444444442,0)" xlink:href="#ai"/></g><path fill="#3a414a" d="M273-131v-194H69v-33h204v-194h33v194h203v33H306v194h-33" id="aj"/><use transform="matrix(0.02222222222222222,0,0,0.02222222222222222,0,0)" xlink:href="#aj" id="r"/><path fill="#3a414a" d="M153 13C68 13 38-57 58-144c39-169 71-338 103-510-6-19-27 3-47 10l-9-15c40-20 76-49 121-63 15 2 13 13 10 28l-82 407c74-77 166-151 189-151 26 0 57 79 57 147 0 105-48 200-135 262-38 28-76 42-112 42zm15-22c112 0 163-152 163-260 0-64-15-111-36-111-20 0-78 50-148 126-10 56-31 122-31 182 0 37 22 63 52 63" id="ak"/><path fill="#3a414a" d="M8-25c0-19 9-52 25-94h20c4 47 11 59 36 59 42 9 116-98 149-137l-54-138c-15-37-25-49-41-49-19 0-37 19-73 81l-18-10c57-95 86-125 121-125 56 0 84 136 109 185l45-60c64-86 106-124 136-124 46 1 56 56 38 102h-20c-1-27-16-43-41-43-55 0-115 103-149 144l46 118c20 51 32 69 47 69 18 0 32-17 62-77l16 8C421-29 384 13 351 13c-14 0-27-7-35-20-21-34-51-123-70-168l-49 59C122-26 75 12 39 12 20 12 8-2 8-25" id="al"/><g id="s"><use transform="matrix(0.02222222222222222,0,0,0.02222222222222222,0,0)" xlink:href="#ak"/><use transform="matrix(0.02222222222222222,0,0,0.02222222222222222,9.333333333333332,0)" xlink:href="#al"/></g><use transform="matrix(0.02222222222222222,0,0,0.02222222222222222,0,0)" xlink:href="#aj" id="t"/><path fill="#3a414a" d="M19-133c0-129 107-305 238-305 54 0 85 26 85 70 0 43-32 80-98 116-31 17-75 34-148 57-20 76-1 168 74 168 32 0 72-18 123-56l9 14c-61 49-132 82-177 82C65 13 19-51 19-133zm82-82c81-26 111-39 136-59 26-22 43-59 43-95 0-76-85-45-115-5-23 31-39 68-64 159" id="am"/><path fill="#3a414a" d="M381-358c2-13-13-25-13-39 0-22 19-41 42-41 25 0 42 21 42 53 0 42-28 107-112 226C254-36 239 31 179 167c-10 24-14 33-14 39-6 18 36 20 68 21l-8 17H4l7-17c60-1 69-6 87-42C162 58 184-6 184-69c0-68-17-178-42-273-10-36-15-45-24-45-13 0-27 14-72 73l-14-9c56-77 96-114 122-114 19 0 35 30 53 103 23 93 33 172 35 298 65-113 123-235 139-322" id="an"/><g id="u"><use transform="matrix(0.02222222222222222,0,0,0.02222222222222222,0,0)" xlink:href="#am"/><use transform="matrix(0.02222222222222222,0,0,0.02222222222222222,7.822222222222221,0)" xlink:href="#an"/></g><use transform="matrix(0.02222222222222222,0,0,0.02222222222222222,0,0)" xlink:href="#aj" id="v"/><path fill="#3a414a" d="M-218 201c23-82 90 14 136 14 32 0 69-25 85-60C56 37 86-231 119-390H43l4-20c17-2 64-9 78-15 21-136 102-297 234-297 42 0 77 23 77 51-20 77-85-9-126-13-91 12-97 153-119 259h91l-10 35h-87c-26 129-47 320-85 428C52 173-35 250-136 250c-44 0-82-23-82-49" id="ao"/><path fill="#3a414a" d="M320 12c-29 16-179-93-218-80-31 0-51 14-53 37-3 32-10 44-27 44C13 13 7 6 7-4c0-21 30-68 63-100 44-44 89-71 251-161 87-48 108-64 135-100-44 23-81 33-116 33-37 12-144-56-180-56-29 0-50 14-78 52l-13-9c47-63 91-91 142-91 33 0 48 5 104 36 43 24 67 33 88 33 35 0 61-17 67-45 4-19 9-26 18-26 10 0 15 6 15 17 0 23-25 62-59 95-47 45-47 45-268 171-65 37-85 51-108 76 37-18 63-24 97-24 42 0 48 3 142 50 59 30 94 13 133-43l14 10c-40 60-92 98-134 98" id="ap"/><g id="w"><use transform="matrix(0.02222222222222222,0,0,0.02222222222222222,0,0)" xlink:href="#ao"/><use transform="matrix(0.02222222222222222,0,0,0.02222222222222222,4.999999999999999,0)" xlink:href="#ap"/></g><g id="x"><use transform="matrix(0.02222222222222222,0,0,0.02222222222222222,0,0)" xlink:href="#ak"/><use transform="matrix(0.02222222222222222,0,0,0.02222222222222222,9.333333333333332,0)" xlink:href="#ai"/></g><path fill="#3a414a" d="M307-399c0 69-65 5-108 5-25 0-49 27-70 77-29 71-47 150-47 207 0 50 24 81 63 81 32 0 73-25 107-67l14 11c-52 60-113 98-159 98-55 0-92-44-92-111 0-125 111-340 237-340 34 0 55 15 55 39" id="aq"/><g id="y"><use transform="matrix(0.02222222222222222,0,0,0.02222222222222222,0,0)" xlink:href="#aq"/><use transform="matrix(0.02222222222222222,0,0,0.02222222222222222,6.6,0)" xlink:href="#al"/></g><g id="z"><use transform="matrix(0.02222222222222222,0,0,0.02222222222222222,0,0)" xlink:href="#ao"/><use transform="matrix(0.02222222222222222,0,0,0.02222222222222222,5.466666666666666,0)" xlink:href="#an"/></g><path fill="#3a414a" d="M37-210c0-91 120-235 235-228-4-1 96 6 125 8v50l-60-6c46 95 21 181-47 241-30 26-86 57-125 74-31 13-42 22-42 35 0 15 18 31 74 67 100 63 129 91 129 122 0 55-100 97-231 97-117 0-200-35-200-85 0-36 50-74 193-144-29-40-6-61 37-89-55-27-88-81-88-142zm188-200c-66 0-120 143-119 209 0 55 31 101 67 101 58 0 116-102 116-201 0-66-25-109-64-109zM100 36C5 78-43 118-43 154c0 46 58 78 141 78 126 0 222-38 132-99-83-56-91-62-130-97" id="ar"/><g id="A"><use transform="matrix(0.02222222222222222,0,0,0.02222222222222222,0,0)" xlink:href="#ar"/><use transform="matrix(0.02222222222222222,0,0,0.02222222222222222,8.666666666666666,0)" xlink:href="#ap"/></g><g id="B"><use transform="matrix(0.02222222222222222,0,0,0.02222222222222222,0,0)" xlink:href="#aq"/><use transform="matrix(0.02222222222222222,0,0,0.02222222222222222,6.6,0)" xlink:href="#ai"/></g><path fill="#3a414a" d="M361-641c4-47-26-6-76 13l-8-16c50-25 96-59 150-78 14 1 15 13 11 27-42 212-128 418-128 636 0 6 3 11 8 11 8 0 32-26 60-66l14 10C352-42 290 13 260 13c-14 0-22-12-22-32 1-36 17-99 24-136C176-44 113 13 78 13S18-41 18-115c0-96 48-197 128-269 61-56 115-79 166-17zM122-39c24 0 89-70 149-160l30-145c-40-91-104-79-153 10-38 69-63 144-63 211 0 51 15 84 37 84" id="as"/><g id="C"><use transform="matrix(0.02222222222222222,0,0,0.02222222222222222,0,0)" xlink:href="#as"/><use transform="matrix(0.02222222222222222,0,0,0.02222222222222222,9.355555555555554,0)" xlink:href="#al"/></g><g id="D"><use transform="matrix(0.02222222222222222,0,0,0.02222222222222222,0,0)" xlink:href="#ar"/><use transform="matrix(0.02222222222222222,0,0,0.02222222222222222,8.666666666666666,0)" xlink:href="#an"/></g><path fill="#3a414a" d="M57 12c-29 0-26-4-23-22 43-215 88-428 131-643 0-4-3-8-7-8-6 0-25 8-53 24l-9-16c44-22 84-55 133-69 12-3 15 14 12 25l-98 484c104-140 197-225 244-225 48 0 43 80 30 129-24 85-45 169-66 256 0 5 4 10 9 10 13 0 42-24 84-72l11 11C406-40 342 13 313 13c-40 0-28-68-19-105 21-90 65-177 65-274 0-15-6-24-16-24-31 0-120 93-209 218L103-24c-8 36-8 36-46 36" id="at"/><g id="E"><use transform="matrix(0.02222222222222222,0,0,0.02222222222222222,0,0)" xlink:href="#at"/><use transform="matrix(0.02222222222222222,0,0,0.02222222222222222,10.755555555555555,0)" xlink:href="#ap"/></g><g id="F"><use transform="matrix(0.02222222222222222,0,0,0.02222222222222222,0,0)" xlink:href="#am"/><use transform="matrix(0.02222222222222222,0,0,0.02222222222222222,7.822222222222221,0)" xlink:href="#ai"/></g><g id="G"><use transform="matrix(0.02222222222222222,0,0,0.02222222222222222,0,0)" xlink:href="#ao"/><use transform="matrix(0.02222222222222222,0,0,0.02222222222222222,5.466666666666666,0)" xlink:href="#al"/></g><path fill="#3a414a" d="M199-552c-17 0-27-12-27-33 0-42 24-82 50-82 17 0 28 15 27 36-2 46-23 79-50 79zm-73 185c-12-23-24 10-66 46l-11-14c63-70 105-103 129-103 26 0 22 37 17 61-21 108-63 211-63 322 0 7 4 12 9 12 9 0 37-27 68-66l13 12C182-42 115 13 90 13c-33 1-31-47-24-79 21-100 41-200 60-301" id="au"/><g id="H"><use transform="matrix(0.02222222222222222,0,0,0.02222222222222222,0,0)" xlink:href="#au"/><use transform="matrix(0.02222222222222222,0,0,0.02222222222222222,5.777777777777777,0)" xlink:href="#an"/></g><path fill="#3a414a" d="M208-552c-17 0-27-12-27-33 0-43 24-82 50-82 16 0 28 15 27 36-2 46-23 79-50 79zm-375 752c21-82 78 14 123 14 43 0 72-53 98-182 26-131 54-259 78-392 0-5-4-10-8-10-11 0-22 9-67 55l-12-11c52-62 115-113 140-113 14 0 22 11 22 30 0 130-50 251-73 376-19 96-59 175-115 232-32 33-71 49-116 49-42 0-70-19-70-48" id="av"/><g id="I"><use transform="matrix(0.02222222222222222,0,0,0.02222222222222222,0,0)" xlink:href="#av"/><use transform="matrix(0.02222222222222222,0,0,0.02222222222222222,5.5555555555555545,0)" xlink:href="#ap"/></g><g id="J"><use transform="matrix(0.02222222222222222,0,0,0.02222222222222222,0,0)" xlink:href="#ao"/><use transform="matrix(0.02222222222222222,0,0,0.02222222222222222,5.222222222222221,0)" xlink:href="#ai"/></g><g id="K"><use transform="matrix(0.02222222222222222,0,0,0.02222222222222222,0,0)" xlink:href="#ar"/><use transform="matrix(0.02222222222222222,0,0,0.02222222222222222,8.666666666666666,0)" xlink:href="#al"/></g><g id="L"><use transform="matrix(0.02222222222222222,0,0,0.02222222222222222,0,0)" xlink:href="#av"/><use transform="matrix(0.02222222222222222,0,0,0.02222222222222222,5.5555555555555545,0)" xlink:href="#an"/></g><path fill="#3a414a" d="M221-206c47 35 98 158 180 164l48-47 12 11-91 91c-48 0-93-37-144-117-30-47-61-85-82-102L105-11c-5 24-6 24-40 24-29 0-31-1-28-18 43-216 131-425 131-646 0-7-3-10-7-10-7 0-21 6-48 22l-9-16c44-21 82-52 131-67 6 0 12 7 11 15l-90 442c77-69 97-86 148-121 58-40 78-51 95-51 32 0 62 41 62 85 0 103-118 143-240 146zm-73-18c135 9 250-19 250-125 0-23-16-42-36-42-29 0-127 72-212 157" id="aw"/><g id="M"><use transform="matrix(0.02222222222222222,0,0,0.02222222222222222,0,0)" xlink:href="#aw"/><use transform="matrix(0.02222222222222222,0,0,0.02222222222222222,10.844444444444443,0)" xlink:href="#ap"/></g><g id="N"><use transform="matrix(0.02222222222222222,0,0,0.02222222222222222,0,0)" xlink:href="#ar"/><use transform="matrix(0.02222222222222222,0,0,0.02222222222222222,8.555555555555555,0)" xlink:href="#ai"/></g><g id="O"><use transform="matrix(0.02222222222222222,0,0,0.02222222222222222,0,0)" xlink:href="#at"/><use transform="matrix(0.02222222222222222,0,0,0.02222222222222222,10.755555555555555,0)" xlink:href="#al"/></g><g id="P"><use transform="matrix(0.02222222222222222,0,0,0.02222222222222222,0,0)" xlink:href="#aw"/><use transform="matrix(0.02222222222222222,0,0,0.02222222222222222,10.71111111111111,0)" xlink:href="#an"/></g><path fill="#3a414a" d="M83 14c-36 0-40-49-32-87 41-193 80-385 118-580 0-4-3-8-7-8-6 0-34 13-65 30l-9-16c45-23 95-59 145-75 15 2 13 14 10 31-44 216-130 426-130 649 0 7 4 13 10 13 12 0 36-21 75-65l13 11c-50 60-99 97-128 97" id="ax"/><g id="Q"><use transform="matrix(0.02222222222222222,0,0,0.02222222222222222,0,0)" xlink:href="#ax"/><use transform="matrix(0.02222222222222222,0,0,0.02222222222222222,5.244444444444444,0)" xlink:href="#ap"/></g></defs></g></svg>